<?xml version="1.0" encoding="UTF-8" standalone="no"?>
<!DOCTYPE svg PUBLIC "-//W3C//DTD SVG 1.1//EN"
 "http://www.w3.org/Graphics/SVG/1.1/DTD/svg11.dtd">
<!-- Generated by graphviz version 12.1.1 (20240910.0053)
 -->
<!-- Pages: 1 -->
<svg width="843pt" height="518pt"
 viewBox="0.00 0.00 1011.32 622.00" xmlns="http://www.w3.org/2000/svg" xmlns:xlink="http://www.w3.org/1999/xlink">
<g id="graph0" class="graph" transform="scale(0.833333 0.833333) rotate(0) translate(4 618)">
<polygon fill="white" stroke="none" points="-4,4 -4,-618 1007.32,-618 1007.32,4 -4,4"/>
<!-- 0 -->
<g id="node1" class="node">
<title>0</title>
<ellipse fill="#ffffff" stroke="black" stroke-width="2" cx="58.56" cy="-72" rx="57.01" ry="18"/>
<text text-anchor="start" x="19.67" y="-68.8" font-family="Times,serif" font-weight="bold" font-size="14.00">earthLaunch</text>
</g>
<!-- 1 -->
<g id="node2" class="node">
<title>1</title>
<ellipse fill="#81d4fa" stroke="black" cx="198.13" cy="-126" rx="27" ry="18"/>
<text text-anchor="middle" x="198.13" y="-121.8" font-family="Times,serif" font-size="14.00">EOR</text>
</g>
<!-- 0&#45;&gt;1 -->
<g id="edge1" class="edge">
<title>0&#45;&gt;1</title>
<path fill="none" stroke="black" d="M95.34,-86.05C116.53,-94.36 143.2,-104.83 163.92,-112.97"/>
<polygon fill="black" stroke="black" points="162.45,-116.15 173.04,-116.55 165.01,-109.63 162.45,-116.15"/>
</g>
<!-- 2 -->
<g id="node3" class="node">
<title>2</title>
<polygon fill="#dce775" stroke="black" points="227.39,-90 168.86,-90 168.86,-54 227.39,-54 227.39,-90"/>
<text text-anchor="middle" x="198.13" y="-67.8" font-family="Times,serif" font-size="14.00">mass [↓]</text>
</g>
<!-- 0&#45;&gt;2 -->
<g id="edge2" class="edge">
<title>0&#45;&gt;2</title>
<path fill="none" stroke="black" d="M115.91,-72C129.77,-72 144.33,-72 157.23,-72"/>
<polygon fill="black" stroke="black" points="157.03,-75.5 167.03,-72 157.03,-68.5 157.03,-75.5"/>
</g>
<!-- 3 -->
<g id="node4" class="node">
<title>3</title>
<polygon fill="#dce775" stroke="black" points="234.38,-36 161.87,-36 161.87,0 234.38,0 234.38,-36"/>
<text text-anchor="middle" x="198.13" y="-13.8" font-family="Times,serif" font-size="14.00">success [↑]</text>
</g>
<!-- 0&#45;&gt;3 -->
<g id="edge3" class="edge">
<title>0&#45;&gt;3</title>
<path fill="none" stroke="black" d="M95.34,-57.95C112.3,-51.3 132.77,-43.26 150.88,-36.15"/>
<polygon fill="black" stroke="black" points="152.08,-39.44 160.11,-32.53 149.52,-32.93 152.08,-39.44"/>
</g>
<!-- 4 -->
<g id="node5" class="node">
<title>4</title>
<ellipse fill="#ffffff" stroke="black" cx="358.63" cy="-151" rx="53.43" ry="18"/>
<text text-anchor="middle" x="358.63" y="-146.8" font-family="Times,serif" font-size="14.00">EOR = False</text>
</g>
<!-- 1&#45;&gt;4 -->
<g id="edge4" class="edge">
<title>1&#45;&gt;4</title>
<path fill="none" stroke="black" d="M224.95,-130.07C244.89,-133.22 273.29,-137.7 298.69,-141.7"/>
<polygon fill="black" stroke="black" points="297.82,-145.11 308.25,-143.21 298.91,-138.2 297.82,-145.11"/>
</g>
<!-- 5 -->
<g id="node6" class="node">
<title>5</title>
<ellipse fill="#ffffff" stroke="black" cx="529.13" cy="-99" rx="51.33" ry="18"/>
<text text-anchor="middle" x="529.13" y="-94.8" font-family="Times,serif" font-size="14.00">EOR = True</text>
</g>
<!-- 1&#45;&gt;5 -->
<g id="edge5" class="edge">
<title>1&#45;&gt;5</title>
<path fill="none" stroke="black" d="M225.22,-123.86C277.23,-119.59 395.02,-109.92 467.44,-103.98"/>
<polygon fill="black" stroke="black" points="467.47,-107.49 477.15,-103.18 466.89,-100.51 467.47,-107.49"/>
</g>
<!-- 6 -->
<g id="node7" class="node">
<title>6</title>
<ellipse fill="#81d4fa" stroke="black" cx="529.13" cy="-153" rx="51.76" ry="18"/>
<text text-anchor="middle" x="529.13" y="-148.8" font-family="Times,serif" font-size="14.00">earthLaunch</text>
</g>
<!-- 4&#45;&gt;6 -->
<g id="edge6" class="edge">
<title>4&#45;&gt;6</title>
<path fill="none" stroke="black" d="M412.49,-151.63C429.35,-151.83 448.17,-152.05 465.65,-152.26"/>
<polygon fill="black" stroke="black" points="465.36,-155.76 475.4,-152.37 465.44,-148.76 465.36,-155.76"/>
</g>
<!-- 7 -->
<g id="node8" class="node">
<title>7</title>
<ellipse fill="#ffffff" stroke="black" cx="715.27" cy="-99" rx="79.49" ry="18"/>
<text text-anchor="middle" x="715.27" y="-94.8" font-family="Times,serif" font-size="14.00">earthLaunch = orbit</text>
</g>
<!-- 5&#45;&gt;7 -->
<g id="edge7" class="edge">
<title>5&#45;&gt;7</title>
<path fill="none" stroke="black" d="M580.94,-99C594.34,-99 609.21,-99 624.02,-99"/>
<polygon fill="black" stroke="black" points="623.8,-102.5 633.8,-99 623.8,-95.5 623.8,-102.5"/>
</g>
<!-- 6&#45;&gt;7 -->
<g id="edge8" class="edge">
<title>6&#45;&gt;7</title>
<path fill="none" stroke="black" d="M569.09,-141.2C584.91,-136.44 603.38,-130.91 620.13,-126 630.9,-122.84 642.37,-119.52 653.47,-116.32"/>
<polygon fill="black" stroke="black" points="654.3,-119.72 662.95,-113.6 652.37,-113 654.3,-119.72"/>
</g>
<!-- 8 -->
<g id="node9" class="node">
<title>8</title>
<ellipse fill="#ffffff" stroke="black" cx="715.27" cy="-153" rx="83.13" ry="18"/>
<text text-anchor="middle" x="715.27" y="-148.8" font-family="Times,serif" font-size="14.00">earthLaunch = direct</text>
</g>
<!-- 6&#45;&gt;8 -->
<g id="edge9" class="edge">
<title>6&#45;&gt;8</title>
<path fill="none" stroke="black" d="M580.94,-153C593.25,-153 606.79,-153 620.4,-153"/>
<polygon fill="black" stroke="black" points="620.29,-156.5 630.29,-153 620.29,-149.5 620.29,-156.5"/>
</g>
<!-- 9 -->
<g id="node10" class="node">
<title>9</title>
<ellipse fill="#ffffff" stroke="black" stroke-width="2" cx="58.56" cy="-417" rx="58.56" ry="18"/>
<text text-anchor="start" x="18.51" y="-413.8" font-family="Times,serif" font-weight="bold" font-size="14.00">moonArrDep</text>
</g>
<!-- 10 -->
<g id="node11" class="node">
<title>10</title>
<ellipse fill="#81d4fa" stroke="black" cx="198.13" cy="-417" rx="45.01" ry="18"/>
<text text-anchor="middle" x="198.13" y="-412.8" font-family="Times,serif" font-size="14.00">moonLOR</text>
</g>
<!-- 9&#45;&gt;10 -->
<g id="edge10" class="edge">
<title>9&#45;&gt;10</title>
<path fill="none" stroke="black" d="M117.5,-417C125.4,-417 133.48,-417 141.34,-417"/>
<polygon fill="black" stroke="black" points="141.12,-420.5 151.12,-417 141.11,-413.5 141.12,-420.5"/>
</g>
<!-- 11 -->
<g id="node12" class="node">
<title>11</title>
<ellipse fill="#ffffff" stroke="black" cx="358.63" cy="-353" rx="53.43" ry="18"/>
<text text-anchor="middle" x="358.63" y="-348.8" font-family="Times,serif" font-size="14.00">LOR = False</text>
</g>
<!-- 10&#45;&gt;11 -->
<g id="edge11" class="edge">
<title>10&#45;&gt;11</title>
<path fill="none" stroke="black" d="M230.82,-404.2C254.33,-394.71 286.68,-381.65 312.83,-371.09"/>
<polygon fill="black" stroke="black" points="313.88,-374.44 321.84,-367.45 311.26,-367.95 313.88,-374.44"/>
</g>
<!-- 12 -->
<g id="node13" class="node">
<title>12</title>
<ellipse fill="#ffffff" stroke="black" cx="529.13" cy="-461" rx="51.33" ry="18"/>
<text text-anchor="middle" x="529.13" y="-456.8" font-family="Times,serif" font-size="14.00">LOR = True</text>
</g>
<!-- 10&#45;&gt;12 -->
<g id="edge12" class="edge">
<title>10&#45;&gt;12</title>
<path fill="none" stroke="black" d="M241.13,-422.62C298.98,-430.35 403.46,-444.33 469.14,-453.11"/>
<polygon fill="black" stroke="black" points="468.65,-456.58 479.03,-454.43 469.58,-449.64 468.65,-456.58"/>
</g>
<!-- 13 -->
<g id="node14" class="node">
<title>13</title>
<ellipse fill="#81d4fa" stroke="black" cx="529.13" cy="-261" rx="39.26" ry="18"/>
<text text-anchor="middle" x="529.13" y="-256.8" font-family="Times,serif" font-size="14.00">moonArr</text>
</g>
<!-- 11&#45;&gt;13 -->
<g id="edge13" class="edge">
<title>11&#45;&gt;13</title>
<path fill="none" stroke="black" d="M387.84,-337.6C416.71,-321.84 461.65,-297.3 492.86,-280.26"/>
<polygon fill="black" stroke="black" points="494.44,-283.38 501.54,-275.52 491.09,-277.24 494.44,-283.38"/>
</g>
<!-- 14 -->
<g id="node15" class="node">
<title>14</title>
<ellipse fill="#81d4fa" stroke="black" cx="529.13" cy="-207" rx="41.87" ry="18"/>
<text text-anchor="middle" x="529.13" y="-202.8" font-family="Times,serif" font-size="14.00">moonDep</text>
</g>
<!-- 11&#45;&gt;14 -->
<g id="edge14" class="edge">
<title>11&#45;&gt;14</title>
<path fill="none" stroke="black" d="M394.44,-339.2C409.34,-331.95 426.06,-321.87 438.14,-309 463.44,-282.04 448.2,-260.36 474.14,-234 477.75,-230.33 481.97,-227.07 486.42,-224.21"/>
<polygon fill="black" stroke="black" points="488.12,-227.27 495.09,-219.29 484.66,-221.18 488.12,-227.27"/>
</g>
<!-- 15 -->
<g id="node16" class="node">
<title>15</title>
<ellipse fill="#ffffff" stroke="black" cx="529.13" cy="-407" rx="49.77" ry="18"/>
<text text-anchor="middle" x="529.13" y="-402.8" font-family="Times,serif" font-size="14.00">lmCrew = 0</text>
</g>
<!-- 11&#45;&gt;15 -->
<g id="edge15" class="edge">
<title>11&#45;&gt;15</title>
<path fill="none" stroke="black" d="M398.29,-365.39C422.61,-373.18 454.17,-383.3 480.09,-391.6"/>
<polygon fill="black" stroke="black" points="478.78,-394.86 489.37,-394.58 480.92,-388.19 478.78,-394.86"/>
</g>
<!-- 16 -->
<g id="node17" class="node">
<title>16</title>
<ellipse fill="#ffffff" stroke="black" cx="529.13" cy="-353" rx="55" ry="18"/>
<text text-anchor="middle" x="529.13" y="-348.8" font-family="Times,serif" font-size="14.00">lmFuel = NA</text>
</g>
<!-- 11&#45;&gt;16 -->
<g id="edge16" class="edge">
<title>11&#45;&gt;16</title>
<path fill="none" stroke="black" d="M412.49,-353C428.33,-353 445.9,-353 462.46,-353"/>
<polygon fill="black" stroke="black" points="462.21,-356.5 472.21,-353 462.21,-349.5 462.21,-356.5"/>
</g>
<!-- 17 -->
<g id="node18" class="node">
<title>17</title>
<ellipse fill="#ffffff" stroke="black" cx="715.27" cy="-407" rx="81.07" ry="18"/>
<text text-anchor="middle" x="715.27" y="-402.8" font-family="Times,serif" font-size="14.00">moonArrival = orbit</text>
</g>
<!-- 12&#45;&gt;17 -->
<g id="edge17" class="edge">
<title>12&#45;&gt;17</title>
<path fill="none" stroke="black" d="M568.64,-449.33C584.57,-444.54 603.23,-438.96 620.13,-434 630.78,-430.88 642.11,-427.59 653.09,-424.43"/>
<polygon fill="black" stroke="black" points="653.82,-427.86 662.46,-421.74 651.88,-421.14 653.82,-427.86"/>
</g>
<!-- 18 -->
<g id="node19" class="node">
<title>18</title>
<ellipse fill="#ffffff" stroke="black" cx="715.27" cy="-353" rx="91.49" ry="18"/>
<text text-anchor="middle" x="715.27" y="-348.8" font-family="Times,serif" font-size="14.00">moonDeparture = orbit</text>
</g>
<!-- 12&#45;&gt;18 -->
<g id="edge18" class="edge">
<title>12&#45;&gt;18</title>
<path fill="none" stroke="black" d="M564.11,-447.4C571.16,-443.67 578.24,-439.2 584.13,-434 605.76,-414.91 596.84,-397.02 620.13,-380 625.5,-376.08 631.42,-372.73 637.6,-369.86"/>
<polygon fill="black" stroke="black" points="638.89,-373.11 646.8,-366.06 636.22,-366.64 638.89,-373.11"/>
</g>
<!-- 19 -->
<g id="node20" class="node">
<title>19</title>
<ellipse fill="#81d4fa" stroke="black" cx="715.27" cy="-461" rx="35.09" ry="18"/>
<text text-anchor="middle" x="715.27" y="-456.8" font-family="Times,serif" font-size="14.00">lmCrew</text>
</g>
<!-- 12&#45;&gt;19 -->
<g id="edge19" class="edge">
<title>12&#45;&gt;19</title>
<path fill="none" stroke="black" d="M580.94,-461C608.38,-461 642,-461 668.61,-461"/>
<polygon fill="black" stroke="black" points="668.41,-464.5 678.41,-461 668.41,-457.5 668.41,-464.5"/>
</g>
<!-- 20 -->
<g id="node21" class="node">
<title>20</title>
<ellipse fill="#81d4fa" stroke="black" cx="715.27" cy="-542" rx="31.44" ry="18"/>
<text text-anchor="middle" x="715.27" y="-537.8" font-family="Times,serif" font-size="14.00">lmFuel</text>
</g>
<!-- 12&#45;&gt;20 -->
<g id="edge20" class="edge">
<title>12&#45;&gt;20</title>
<path fill="none" stroke="black" d="M562.21,-475.11C594.94,-489.51 645.58,-511.78 679.31,-526.62"/>
<polygon fill="black" stroke="black" points="677.68,-529.73 688.24,-530.55 680.5,-523.32 677.68,-529.73"/>
</g>
<!-- 13&#45;&gt;17 -->
<g id="edge21" class="edge">
<title>13&#45;&gt;17</title>
<path fill="none" stroke="black" d="M544.85,-277.71C556,-290.61 571.51,-309.06 584.13,-326 601.37,-349.13 596.84,-362.98 620.13,-380 626.31,-384.52 633.23,-388.28 640.43,-391.41"/>
<polygon fill="black" stroke="black" points="639.14,-394.67 649.73,-395.02 641.67,-388.14 639.14,-394.67"/>
</g>
<!-- 21 -->
<g id="node22" class="node">
<title>21</title>
<ellipse fill="#ffffff" stroke="black" cx="715.27" cy="-261" rx="84.71" ry="18"/>
<text text-anchor="middle" x="715.27" y="-256.8" font-family="Times,serif" font-size="14.00">moonArrival = direct</text>
</g>
<!-- 13&#45;&gt;21 -->
<g id="edge22" class="edge">
<title>13&#45;&gt;21</title>
<path fill="none" stroke="black" d="M568.74,-261C583.51,-261 601.1,-261 618.85,-261"/>
<polygon fill="black" stroke="black" points="618.7,-264.5 628.7,-261 618.7,-257.5 618.7,-264.5"/>
</g>
<!-- 14&#45;&gt;18 -->
<g id="edge23" class="edge">
<title>14&#45;&gt;18</title>
<path fill="none" stroke="black" d="M561.01,-219.01C569.06,-223.03 577.37,-228.03 584.13,-234 605.76,-253.09 599.9,-267.44 620.13,-288 635.88,-304.01 656.08,-318.55 673.73,-329.81"/>
<polygon fill="black" stroke="black" points="671.6,-332.6 681.94,-334.91 675.29,-326.66 671.6,-332.6"/>
</g>
<!-- 22 -->
<g id="node23" class="node">
<title>22</title>
<ellipse fill="#ffffff" stroke="black" cx="715.27" cy="-207" rx="95.14" ry="18"/>
<text text-anchor="middle" x="715.27" y="-202.8" font-family="Times,serif" font-size="14.00">moonDeparture = direct</text>
</g>
<!-- 14&#45;&gt;22 -->
<g id="edge24" class="edge">
<title>14&#45;&gt;22</title>
<path fill="none" stroke="black" d="M571.46,-207C582.61,-207 595.21,-207 608.19,-207"/>
<polygon fill="black" stroke="black" points="608.15,-210.5 618.15,-207 608.15,-203.5 608.15,-210.5"/>
</g>
<!-- 23 -->
<g id="node24" class="node">
<title>23</title>
<ellipse fill="#ffffff" stroke="black" cx="924.86" cy="-380" rx="49.77" ry="18"/>
<text text-anchor="middle" x="924.86" y="-375.8" font-family="Times,serif" font-size="14.00">lmCrew = 1</text>
</g>
<!-- 19&#45;&gt;23 -->
<g id="edge25" class="edge">
<title>19&#45;&gt;23</title>
<path fill="none" stroke="black" d="M748.72,-454.77C767.38,-450.44 790.92,-443.69 810.4,-434 828.31,-425.1 828.75,-416.4 846.4,-407 854.99,-402.43 864.5,-398.37 873.84,-394.89"/>
<polygon fill="black" stroke="black" points="874.97,-398.2 883.23,-391.56 872.63,-391.6 874.97,-398.2"/>
</g>
<!-- 24 -->
<g id="node25" class="node">
<title>24</title>
<ellipse fill="#ffffff" stroke="black" cx="924.86" cy="-488" rx="49.77" ry="18"/>
<text text-anchor="middle" x="924.86" y="-483.8" font-family="Times,serif" font-size="14.00">lmCrew = 2</text>
</g>
<!-- 19&#45;&gt;24 -->
<g id="edge26" class="edge">
<title>19&#45;&gt;24</title>
<path fill="none" stroke="black" d="M749.62,-465.34C780.99,-469.42 828.61,-475.61 866.14,-480.49"/>
<polygon fill="black" stroke="black" points="865.57,-483.95 875.94,-481.77 866.47,-477.01 865.57,-483.95"/>
</g>
<!-- 25 -->
<g id="node26" class="node">
<title>25</title>
<ellipse fill="#ffffff" stroke="black" cx="924.86" cy="-434" rx="49.77" ry="18"/>
<text text-anchor="middle" x="924.86" y="-429.8" font-family="Times,serif" font-size="14.00">lmCrew = 3</text>
</g>
<!-- 19&#45;&gt;25 -->
<g id="edge27" class="edge">
<title>19&#45;&gt;25</title>
<path fill="none" stroke="black" d="M749.62,-456.66C780.99,-452.58 828.61,-446.39 866.14,-441.51"/>
<polygon fill="black" stroke="black" points="866.47,-444.99 875.94,-440.23 865.57,-438.05 866.47,-444.99"/>
</g>
<!-- 26 -->
<g id="node27" class="node">
<title>26</title>
<ellipse fill="#ffffff" stroke="black" cx="924.86" cy="-596" rx="78.46" ry="18"/>
<text text-anchor="middle" x="924.86" y="-591.8" font-family="Times,serif" font-size="14.00">lmFuel = cryogenic</text>
</g>
<!-- 20&#45;&gt;26 -->
<g id="edge28" class="edge">
<title>20&#45;&gt;26</title>
<path fill="none" stroke="black" d="M744.26,-549.28C774.01,-557.02 822,-569.5 860.9,-579.62"/>
<polygon fill="black" stroke="black" points="859.58,-582.9 870.14,-582.03 861.35,-576.12 859.58,-582.9"/>
</g>
<!-- 27 -->
<g id="node28" class="node">
<title>27</title>
<ellipse fill="#ffffff" stroke="black" cx="924.86" cy="-542" rx="71.16" ry="18"/>
<text text-anchor="middle" x="924.86" y="-537.8" font-family="Times,serif" font-size="14.00">lmFuel = storable</text>
</g>
<!-- 20&#45;&gt;27 -->
<g id="edge29" class="edge">
<title>20&#45;&gt;27</title>
<path fill="none" stroke="black" d="M746.9,-542C772.03,-542 808.8,-542 842.32,-542"/>
<polygon fill="black" stroke="black" points="842.03,-545.5 852.03,-542 842.03,-538.5 842.03,-545.5"/>
</g>
<!-- 28 -->
<g id="node29" class="node">
<title>28</title>
<ellipse fill="#ffffff" stroke="black" stroke-width="2" cx="58.56" cy="-255" rx="27" ry="18"/>
<text text-anchor="start" x="44.18" y="-251.8" font-family="Times,serif" font-weight="bold" font-size="14.00">crew</text>
</g>
<!-- 29 -->
<g id="node30" class="node">
<title>29</title>
<ellipse fill="#81d4fa" stroke="black" cx="198.13" cy="-255" rx="27" ry="18"/>
<text text-anchor="middle" x="198.13" y="-250.8" font-family="Times,serif" font-size="14.00">crew</text>
</g>
<!-- 28&#45;&gt;29 -->
<g id="edge30" class="edge">
<title>28&#45;&gt;29</title>
<path fill="none" stroke="black" d="M85.76,-255C106.7,-255 136.32,-255 159.75,-255"/>
<polygon fill="black" stroke="black" points="159.51,-258.5 169.51,-255 159.51,-251.5 159.51,-258.5"/>
</g>
<!-- 30 -->
<g id="node31" class="node">
<title>30</title>
<ellipse fill="#ffffff" stroke="black" cx="358.63" cy="-282" rx="51.33" ry="18"/>
<text text-anchor="middle" x="358.63" y="-277.8" font-family="Times,serif" font-size="14.00">cmCrew = 2</text>
</g>
<!-- 29&#45;&gt;30 -->
<g id="edge31" class="edge">
<title>29&#45;&gt;30</title>
<path fill="none" stroke="black" d="M224.59,-259.34C245.02,-262.82 274.48,-267.84 300.49,-272.27"/>
<polygon fill="black" stroke="black" points="299.83,-275.7 310.28,-273.93 301,-268.8 299.83,-275.7"/>
</g>
<!-- 31 -->
<g id="node32" class="node">
<title>31</title>
<ellipse fill="#ffffff" stroke="black" cx="358.63" cy="-228" rx="51.33" ry="18"/>
<text text-anchor="middle" x="358.63" y="-223.8" font-family="Times,serif" font-size="14.00">cmCrew = 3</text>
</g>
<!-- 29&#45;&gt;31 -->
<g id="edge32" class="edge">
<title>29&#45;&gt;31</title>
<path fill="none" stroke="black" d="M224.59,-250.66C245.02,-247.18 274.48,-242.16 300.49,-237.73"/>
<polygon fill="black" stroke="black" points="301,-241.2 310.28,-236.07 299.83,-234.3 301,-241.2"/>
</g>
<!-- 30&#45;&gt;25 -->
<g id="edge33" class="edge">
<title>30&#45;&gt;25</title>
<path fill="none" stroke="red" d="M409.19,-285.5C522.95,-293.7 794.3,-314.38 810.4,-326 842.35,-349.05 817.42,-380.32 846.4,-407 855.83,-415.68 868.21,-421.59 880.29,-425.61"/>
</g>
<!-- 32 -->
<g id="node33" class="node">
<title>32</title>
<ellipse fill="#ffffff" stroke="black" stroke-width="2" cx="58.56" cy="-492" rx="34.05" ry="18"/>
<text text-anchor="start" x="36.78" y="-488.8" font-family="Times,serif" font-weight="bold" font-size="14.00">smFuel</text>
</g>
<!-- 33 -->
<g id="node34" class="node">
<title>33</title>
<ellipse fill="#81d4fa" stroke="black" cx="198.13" cy="-492" rx="32.49" ry="18"/>
<text text-anchor="middle" x="198.13" y="-487.8" font-family="Times,serif" font-size="14.00">smFuel</text>
</g>
<!-- 32&#45;&gt;33 -->
<g id="edge34" class="edge">
<title>32&#45;&gt;33</title>
<path fill="none" stroke="black" d="M92.86,-492C111.25,-492 134.31,-492 154.06,-492"/>
<polygon fill="black" stroke="black" points="154.04,-495.5 164.04,-492 154.04,-488.5 154.04,-495.5"/>
</g>
<!-- 34 -->
<g id="node35" class="node">
<title>34</title>
<ellipse fill="#ffffff" stroke="black" cx="358.63" cy="-542" rx="79.5" ry="18"/>
<text text-anchor="middle" x="358.63" y="-537.8" font-family="Times,serif" font-size="14.00">smFuel = cryogenic</text>
</g>
<!-- 33&#45;&gt;34 -->
<g id="edge35" class="edge">
<title>33&#45;&gt;34</title>
<path fill="none" stroke="black" d="M227.1,-500.82C247.23,-507.17 275.09,-515.96 299.91,-523.79"/>
<polygon fill="black" stroke="black" points="298.66,-527.07 309.25,-526.74 300.76,-520.39 298.66,-527.07"/>
</g>
<!-- 35 -->
<g id="node36" class="node">
<title>35</title>
<ellipse fill="#ffffff" stroke="black" cx="358.63" cy="-488" rx="72.21" ry="18"/>
<text text-anchor="middle" x="358.63" y="-483.8" font-family="Times,serif" font-size="14.00">smFuel = storable</text>
</g>
<!-- 33&#45;&gt;35 -->
<g id="edge36" class="edge">
<title>33&#45;&gt;35</title>
<path fill="none" stroke="black" d="M230.82,-491.2C243.69,-490.88 259.21,-490.48 274.92,-490.09"/>
<polygon fill="black" stroke="black" points="274.93,-493.59 284.83,-489.84 274.75,-486.59 274.93,-493.59"/>
</g>
</g>
</svg>
