<?xml version="1.0" encoding="UTF-8" standalone="no"?>
<!DOCTYPE svg PUBLIC "-//W3C//DTD SVG 1.1//EN"
 "http://www.w3.org/Graphics/SVG/1.1/DTD/svg11.dtd">
<!-- Generated by graphviz version 9.0.0 (20230911.1827)
 -->
<!-- Pages: 1 -->
<svg width="843pt" height="678pt"
 viewBox="0.00 0.00 1011.32 813.00" xmlns="http://www.w3.org/2000/svg" xmlns:xlink="http://www.w3.org/1999/xlink">
<g id="graph0" class="graph" transform="scale(0.833333 0.833333) rotate(0) translate(4 809)">
<polygon fill="white" stroke="none" points="-4,4 -4,-809 1007.32,-809 1007.32,4 -4,4"/>
<!-- 0 -->
<g id="node1" class="node">
<title>0</title>
<ellipse fill="#ffffff" stroke="black" stroke-width="2" cx="58.56" cy="-72" rx="57.01" ry="18"/>
<text text-anchor="start" x="19.67" y="-68.8" font-family="Times,serif" font-weight="bold" font-size="14.00">earthLaunch</text>
</g>
<!-- 1 -->
<g id="node2" class="node">
<title>1</title>
<ellipse fill="#81d4fa" stroke="black" cx="198.13" cy="-126" rx="27" ry="18"/>
<text text-anchor="middle" x="198.13" y="-121.8" font-family="Times,serif" font-size="14.00">EOR</text>
</g>
<!-- 0&#45;&gt;1 -->
<g id="edge1" class="edge">
<title>0&#45;&gt;1</title>
<path fill="none" stroke="black" d="M95.34,-86.05C116.53,-94.36 143.2,-104.83 163.92,-112.97"/>
<polygon fill="black" stroke="black" points="162.45,-116.15 173.04,-116.55 165.01,-109.63 162.45,-116.15"/>
</g>
<!-- 2 -->
<g id="node3" class="node">
<title>2</title>
<polygon fill="#dce775" stroke="black" points="233.03,-90 163.22,-90 163.22,-54 233.03,-54 233.03,-90"/>
<text text-anchor="middle" x="198.13" y="-67.8" font-family="Times,serif" font-size="14.00">mass [min]</text>
</g>
<!-- 0&#45;&gt;2 -->
<g id="edge2" class="edge">
<title>0&#45;&gt;2</title>
<path fill="none" stroke="black" d="M115.91,-72C127.7,-72 139.98,-72 151.33,-72"/>
<polygon fill="black" stroke="black" points="151.24,-75.5 161.24,-72 151.24,-68.5 151.24,-75.5"/>
</g>
<!-- 3 -->
<g id="node4" class="node">
<title>3</title>
<polygon fill="#dce775" stroke="black" points="241.18,-36 155.07,-36 155.07,0 241.18,0 241.18,-36"/>
<text text-anchor="middle" x="198.13" y="-13.8" font-family="Times,serif" font-size="14.00">success [max]</text>
</g>
<!-- 0&#45;&gt;3 -->
<g id="edge3" class="edge">
<title>0&#45;&gt;3</title>
<path fill="none" stroke="black" d="M95.34,-57.95C110.23,-52.11 127.83,-45.2 144.16,-38.79"/>
<polygon fill="black" stroke="black" points="145.23,-42.13 153.26,-35.22 142.68,-35.61 145.23,-42.13"/>
</g>
<!-- 4 -->
<g id="node5" class="node">
<title>4</title>
<ellipse fill="#ffffff" stroke="black" cx="358.63" cy="-150" rx="53.43" ry="18"/>
<text text-anchor="middle" x="358.63" y="-145.8" font-family="Times,serif" font-size="14.00">EOR = False</text>
</g>
<!-- 1&#45;&gt;4 -->
<g id="edge4" class="edge">
<title>1&#45;&gt;4</title>
<path fill="none" stroke="black" d="M224.95,-129.91C244.73,-132.9 272.82,-137.16 298.06,-140.98"/>
<polygon fill="black" stroke="black" points="297.51,-144.44 307.92,-142.47 298.56,-137.52 297.51,-144.44"/>
</g>
<!-- 5 -->
<g id="node6" class="node">
<title>5</title>
<ellipse fill="#ffffff" stroke="black" cx="529.13" cy="-101" rx="51.33" ry="18"/>
<text text-anchor="middle" x="529.13" y="-96.8" font-family="Times,serif" font-size="14.00">EOR = True</text>
</g>
<!-- 1&#45;&gt;5 -->
<g id="edge5" class="edge">
<title>1&#45;&gt;5</title>
<path fill="none" stroke="black" d="M225.22,-124.02C277.23,-120.07 395.02,-111.11 467.44,-105.61"/>
<polygon fill="black" stroke="black" points="467.44,-109.12 477.15,-104.87 466.91,-102.14 467.44,-109.12"/>
</g>
<!-- 6 -->
<g id="node7" class="node">
<title>6</title>
<ellipse fill="#81d4fa" stroke="black" cx="529.13" cy="-155" rx="51.76" ry="18"/>
<text text-anchor="middle" x="529.13" y="-150.8" font-family="Times,serif" font-size="14.00">earthLaunch</text>
</g>
<!-- 4&#45;&gt;6 -->
<g id="edge6" class="edge">
<title>4&#45;&gt;6</title>
<path fill="none" stroke="black" d="M412.03,-151.55C429.06,-152.06 448.14,-152.63 465.83,-153.15"/>
<polygon fill="black" stroke="black" points="465.61,-156.65 475.71,-153.44 465.82,-149.65 465.61,-156.65"/>
</g>
<!-- 7 -->
<g id="node8" class="node">
<title>7</title>
<ellipse fill="#ffffff" stroke="black" cx="715.27" cy="-101" rx="79.49" ry="18"/>
<text text-anchor="middle" x="715.27" y="-96.8" font-family="Times,serif" font-size="14.00">earthLaunch = orbit</text>
</g>
<!-- 5&#45;&gt;7 -->
<g id="edge7" class="edge">
<title>5&#45;&gt;7</title>
<path fill="none" stroke="black" d="M580.94,-101C594.34,-101 609.21,-101 624.02,-101"/>
<polygon fill="black" stroke="black" points="623.8,-104.5 633.8,-101 623.8,-97.5 623.8,-104.5"/>
</g>
<!-- 6&#45;&gt;7 -->
<g id="edge8" class="edge">
<title>6&#45;&gt;7</title>
<path fill="none" stroke="black" d="M569.09,-143.2C584.91,-138.44 603.38,-132.91 620.13,-128 630.9,-124.84 642.37,-121.52 653.47,-118.32"/>
<polygon fill="black" stroke="black" points="654.3,-121.72 662.95,-115.6 652.37,-115 654.3,-121.72"/>
</g>
<!-- 8 -->
<g id="node9" class="node">
<title>8</title>
<ellipse fill="#ffffff" stroke="black" cx="715.27" cy="-155" rx="83.13" ry="18"/>
<text text-anchor="middle" x="715.27" y="-150.8" font-family="Times,serif" font-size="14.00">earthLaunch = direct</text>
</g>
<!-- 6&#45;&gt;8 -->
<g id="edge9" class="edge">
<title>6&#45;&gt;8</title>
<path fill="none" stroke="black" d="M580.94,-155C593.25,-155 606.79,-155 620.4,-155"/>
<polygon fill="black" stroke="black" points="620.29,-158.5 630.29,-155 620.29,-151.5 620.29,-158.5"/>
</g>
<!-- 9 -->
<g id="node10" class="node">
<title>9</title>
<ellipse fill="#ffffff" stroke="black" stroke-width="2" cx="58.56" cy="-471" rx="58.56" ry="18"/>
<text text-anchor="start" x="18.51" y="-467.8" font-family="Times,serif" font-weight="bold" font-size="14.00">moonArrDep</text>
</g>
<!-- 10 -->
<g id="node11" class="node">
<title>10</title>
<ellipse fill="#81d4fa" stroke="black" cx="198.13" cy="-471" rx="45.01" ry="18"/>
<text text-anchor="middle" x="198.13" y="-466.8" font-family="Times,serif" font-size="14.00">moonLOR</text>
</g>
<!-- 9&#45;&gt;10 -->
<g id="edge10" class="edge">
<title>9&#45;&gt;10</title>
<path fill="none" stroke="black" d="M117.5,-471C125.4,-471 133.48,-471 141.34,-471"/>
<polygon fill="black" stroke="black" points="141.12,-474.5 151.12,-471 141.11,-467.5 141.12,-474.5"/>
</g>
<!-- 11 -->
<g id="node12" class="node">
<title>11</title>
<ellipse fill="#ffffff" stroke="black" cx="358.63" cy="-355" rx="53.43" ry="18"/>
<text text-anchor="middle" x="358.63" y="-350.8" font-family="Times,serif" font-size="14.00">LOR = False</text>
</g>
<!-- 10&#45;&gt;11 -->
<g id="edge11" class="edge">
<title>10&#45;&gt;11</title>
<path fill="none" stroke="black" d="M220.83,-455.11C248.03,-435.21 294.86,-400.94 326.03,-378.13"/>
<polygon fill="black" stroke="black" points="327.94,-381.07 333.95,-372.34 323.81,-375.42 327.94,-381.07"/>
</g>
<!-- 12 -->
<g id="node13" class="node">
<title>12</title>
<ellipse fill="#ffffff" stroke="black" cx="529.13" cy="-517" rx="51.33" ry="18"/>
<text text-anchor="middle" x="529.13" y="-512.8" font-family="Times,serif" font-size="14.00">LOR = True</text>
</g>
<!-- 10&#45;&gt;12 -->
<g id="edge12" class="edge">
<title>10&#45;&gt;12</title>
<path fill="none" stroke="black" d="M241.02,-476.7C288.75,-483.22 369.08,-494.24 438.14,-504 448.47,-505.46 459.46,-507.03 470.09,-508.56"/>
<polygon fill="black" stroke="black" points="469.54,-512.02 479.93,-509.98 470.54,-505.09 469.54,-512.02"/>
</g>
<!-- 13 -->
<g id="node14" class="node">
<title>13</title>
<ellipse fill="#81d4fa" stroke="black" cx="529.13" cy="-409" rx="39.26" ry="18"/>
<text text-anchor="middle" x="529.13" y="-404.8" font-family="Times,serif" font-size="14.00">moonArr</text>
</g>
<!-- 11&#45;&gt;13 -->
<g id="edge13" class="edge">
<title>11&#45;&gt;13</title>
<path fill="none" stroke="black" d="M398.29,-367.39C424.34,-375.74 458.7,-386.75 485.54,-395.35"/>
<polygon fill="black" stroke="black" points="484.12,-398.57 494.72,-398.29 486.26,-391.91 484.12,-398.57"/>
</g>
<!-- 14 -->
<g id="node15" class="node">
<title>14</title>
<ellipse fill="#81d4fa" stroke="black" cx="529.13" cy="-317" rx="41.87" ry="18"/>
<text text-anchor="middle" x="529.13" y="-312.8" font-family="Times,serif" font-size="14.00">moonDep</text>
</g>
<!-- 11&#45;&gt;14 -->
<g id="edge14" class="edge">
<title>11&#45;&gt;14</title>
<path fill="none" stroke="black" d="M403.91,-345.02C427.48,-339.7 456.48,-333.16 480.53,-327.74"/>
<polygon fill="black" stroke="black" points="481.09,-331.2 490.07,-325.58 479.55,-324.37 481.09,-331.2"/>
</g>
<!-- 15 -->
<g id="node16" class="node">
<title>15</title>
<ellipse fill="#ffffff" stroke="black" cx="529.13" cy="-263" rx="49.77" ry="18"/>
<text text-anchor="middle" x="529.13" y="-258.8" font-family="Times,serif" font-size="14.00">lmCrew = 0</text>
</g>
<!-- 11&#45;&gt;15 -->
<g id="edge15" class="edge">
<title>11&#45;&gt;15</title>
<path fill="none" stroke="black" d="M386.25,-339.36C409.32,-325.94 443.68,-306.24 474.14,-290 478.63,-287.6 483.36,-285.15 488.08,-282.74"/>
<polygon fill="black" stroke="black" points="489.59,-285.89 496.93,-278.26 486.43,-279.65 489.59,-285.89"/>
</g>
<!-- 16 -->
<g id="node17" class="node">
<title>16</title>
<ellipse fill="#ffffff" stroke="black" cx="529.13" cy="-209" rx="55" ry="18"/>
<text text-anchor="middle" x="529.13" y="-204.8" font-family="Times,serif" font-size="14.00">lmFuel = NA</text>
</g>
<!-- 11&#45;&gt;16 -->
<g id="edge16" class="edge">
<title>11&#45;&gt;16</title>
<path fill="none" stroke="black" d="M382.39,-338.56C398.9,-326.02 421.2,-307.77 438.14,-289 457.22,-267.86 452.71,-254.75 474.14,-236 477.07,-233.44 480.28,-231.05 483.64,-228.84"/>
<polygon fill="black" stroke="black" points="485.22,-231.97 492.05,-223.86 481.66,-225.94 485.22,-231.97"/>
</g>
<!-- 17 -->
<g id="node18" class="node">
<title>17</title>
<ellipse fill="#ffffff" stroke="black" cx="529.13" cy="-463" rx="55" ry="18"/>
<text text-anchor="middle" x="529.13" y="-458.8" font-family="Times,serif" font-size="14.00">lmFuel = NA</text>
</g>
<!-- 11&#45;&gt;17 -->
<g id="edge17" class="edge">
<title>11&#45;&gt;17</title>
<path fill="none" stroke="black" d="M380.92,-371.54C403.43,-388.68 440.3,-415.73 474.14,-436 478.13,-438.39 482.37,-440.77 486.64,-443.06"/>
<polygon fill="black" stroke="black" points="484.75,-446.02 495.23,-447.53 487.98,-439.81 484.75,-446.02"/>
</g>
<!-- 18 -->
<g id="node19" class="node">
<title>18</title>
<ellipse fill="#ffffff" stroke="black" cx="715.27" cy="-463" rx="81.07" ry="18"/>
<text text-anchor="middle" x="715.27" y="-458.8" font-family="Times,serif" font-size="14.00">moonArrival = orbit</text>
</g>
<!-- 12&#45;&gt;18 -->
<g id="edge18" class="edge">
<title>12&#45;&gt;18</title>
<path fill="none" stroke="black" d="M568.64,-505.33C584.57,-500.54 603.23,-494.96 620.13,-490 630.78,-486.88 642.11,-483.59 653.09,-480.43"/>
<polygon fill="black" stroke="black" points="653.82,-483.86 662.46,-477.74 651.88,-477.14 653.82,-483.86"/>
</g>
<!-- 19 -->
<g id="node20" class="node">
<title>19</title>
<ellipse fill="#ffffff" stroke="black" cx="715.27" cy="-317" rx="91.49" ry="18"/>
<text text-anchor="middle" x="715.27" y="-312.8" font-family="Times,serif" font-size="14.00">moonDeparture = orbit</text>
</g>
<!-- 12&#45;&gt;19 -->
<g id="edge19" class="edge">
<title>12&#45;&gt;19</title>
<path fill="none" stroke="black" d="M566.42,-504.34C573.09,-500.61 579.42,-495.89 584.13,-490 625.87,-437.8 573.77,-392.14 620.13,-344 623.98,-340 628.38,-336.58 633.13,-333.66"/>
<polygon fill="black" stroke="black" points="634.72,-336.78 641.96,-329.04 631.47,-330.58 634.72,-336.78"/>
</g>
<!-- 20 -->
<g id="node21" class="node">
<title>20</title>
<ellipse fill="#81d4fa" stroke="black" cx="715.27" cy="-706" rx="35.09" ry="18"/>
<text text-anchor="middle" x="715.27" y="-701.8" font-family="Times,serif" font-size="14.00">lmCrew</text>
</g>
<!-- 12&#45;&gt;20 -->
<g id="edge20" class="edge">
<title>12&#45;&gt;20</title>
<path fill="none" stroke="black" d="M546.8,-534.11C579.64,-567.81 652.8,-642.91 690.62,-681.72"/>
<polygon fill="black" stroke="black" points="688.02,-684.07 697.5,-688.79 693.03,-679.19 688.02,-684.07"/>
</g>
<!-- 21 -->
<g id="node22" class="node">
<title>21</title>
<ellipse fill="#81d4fa" stroke="black" cx="715.27" cy="-571" rx="31.44" ry="18"/>
<text text-anchor="middle" x="715.27" y="-566.8" font-family="Times,serif" font-size="14.00">lmFuel</text>
</g>
<!-- 12&#45;&gt;21 -->
<g id="edge21" class="edge">
<title>12&#45;&gt;21</title>
<path fill="none" stroke="black" d="M568.64,-528.67C584.57,-533.46 603.23,-539.04 620.13,-544 638.47,-549.38 658.85,-555.24 675.94,-560.12"/>
<polygon fill="black" stroke="black" points="674.61,-563.38 685.19,-562.76 676.53,-556.65 674.61,-563.38"/>
</g>
<!-- 22 -->
<g id="node23" class="node">
<title>22</title>
<ellipse fill="#81d4fa" stroke="black" cx="715.27" cy="-517" rx="31.44" ry="18"/>
<text text-anchor="middle" x="715.27" y="-512.8" font-family="Times,serif" font-size="14.00">lmFuel</text>
</g>
<!-- 12&#45;&gt;22 -->
<g id="edge22" class="edge">
<title>12&#45;&gt;22</title>
<path fill="none" stroke="black" d="M580.94,-517C609.59,-517 644.97,-517 672.08,-517"/>
<polygon fill="black" stroke="black" points="672.01,-520.5 682.01,-517 672.01,-513.5 672.01,-520.5"/>
</g>
<!-- 13&#45;&gt;18 -->
<g id="edge23" class="edge">
<title>13&#45;&gt;18</title>
<path fill="none" stroke="black" d="M562.63,-418.53C587.82,-425.92 623.45,-436.37 653.84,-445.28"/>
<polygon fill="black" stroke="black" points="652.74,-448.6 663.32,-448.06 654.71,-441.89 652.74,-448.6"/>
</g>
<!-- 23 -->
<g id="node24" class="node">
<title>23</title>
<ellipse fill="#ffffff" stroke="black" cx="715.27" cy="-371" rx="84.71" ry="18"/>
<text text-anchor="middle" x="715.27" y="-366.8" font-family="Times,serif" font-size="14.00">moonArrival = direct</text>
</g>
<!-- 13&#45;&gt;23 -->
<g id="edge24" class="edge">
<title>13&#45;&gt;23</title>
<path fill="none" stroke="black" d="M565.64,-401.67C587.31,-397.2 615.81,-391.32 642.05,-385.9"/>
<polygon fill="black" stroke="black" points="642.56,-389.37 651.65,-383.92 641.15,-382.52 642.56,-389.37"/>
</g>
<!-- 14&#45;&gt;19 -->
<g id="edge25" class="edge">
<title>14&#45;&gt;19</title>
<path fill="none" stroke="black" d="M571.46,-317C583.67,-317 597.62,-317 611.9,-317"/>
<polygon fill="black" stroke="black" points="611.89,-320.5 621.89,-317 611.89,-313.5 611.89,-320.5"/>
</g>
<!-- 24 -->
<g id="node25" class="node">
<title>24</title>
<ellipse fill="#ffffff" stroke="black" cx="715.27" cy="-263" rx="95.14" ry="18"/>
<text text-anchor="middle" x="715.27" y="-258.8" font-family="Times,serif" font-size="14.00">moonDeparture = direct</text>
</g>
<!-- 14&#45;&gt;24 -->
<g id="edge26" class="edge">
<title>14&#45;&gt;24</title>
<path fill="none" stroke="black" d="M563.87,-306.77C580.75,-301.68 601.51,-295.47 620.13,-290 629.84,-287.15 640.11,-284.17 650.17,-281.27"/>
<polygon fill="black" stroke="black" points="650.87,-284.71 659.51,-278.58 648.93,-277.99 650.87,-284.71"/>
</g>
<!-- 25 -->
<g id="node26" class="node">
<title>25</title>
<ellipse fill="#ffffff" stroke="black" cx="924.86" cy="-679" rx="49.77" ry="18"/>
<text text-anchor="middle" x="924.86" y="-674.8" font-family="Times,serif" font-size="14.00">lmCrew = 1</text>
</g>
<!-- 20&#45;&gt;25 -->
<g id="edge27" class="edge">
<title>20&#45;&gt;25</title>
<path fill="none" stroke="black" d="M749.62,-701.66C780.99,-697.58 828.61,-691.39 866.14,-686.51"/>
<polygon fill="black" stroke="black" points="866.47,-689.99 875.94,-685.23 865.57,-683.05 866.47,-689.99"/>
</g>
<!-- 26 -->
<g id="node27" class="node">
<title>26</title>
<ellipse fill="#ffffff" stroke="black" cx="924.86" cy="-787" rx="49.77" ry="18"/>
<text text-anchor="middle" x="924.86" y="-782.8" font-family="Times,serif" font-size="14.00">lmCrew = 2</text>
</g>
<!-- 20&#45;&gt;26 -->
<g id="edge28" class="edge">
<title>20&#45;&gt;26</title>
<path fill="none" stroke="black" d="M742.51,-717.41C768.66,-728.67 810.06,-746.14 846.4,-760 856.18,-763.73 866.71,-767.54 876.78,-771.08"/>
<polygon fill="black" stroke="black" points="875.43,-774.31 886.02,-774.3 877.73,-767.7 875.43,-774.31"/>
</g>
<!-- 27 -->
<g id="node28" class="node">
<title>27</title>
<ellipse fill="#ffffff" stroke="black" cx="924.86" cy="-733" rx="49.77" ry="18"/>
<text text-anchor="middle" x="924.86" y="-728.8" font-family="Times,serif" font-size="14.00">lmCrew = 3</text>
</g>
<!-- 20&#45;&gt;27 -->
<g id="edge29" class="edge">
<title>20&#45;&gt;27</title>
<path fill="none" stroke="black" d="M749.62,-710.34C780.99,-714.42 828.61,-720.61 866.14,-725.49"/>
<polygon fill="black" stroke="black" points="865.57,-728.95 875.94,-726.77 866.47,-722.01 865.57,-728.95"/>
</g>
<!-- 28 -->
<g id="node29" class="node">
<title>28</title>
<ellipse fill="#ffffff" stroke="black" cx="924.86" cy="-625" rx="78.46" ry="18"/>
<text text-anchor="middle" x="924.86" y="-620.8" font-family="Times,serif" font-size="14.00">lmFuel = cryogenic</text>
</g>
<!-- 21&#45;&gt;28 -->
<g id="edge30" class="edge">
<title>21&#45;&gt;28</title>
<path fill="none" stroke="black" d="M744.26,-578.28C774.01,-586.02 822,-598.5 860.9,-608.62"/>
<polygon fill="black" stroke="black" points="859.58,-611.9 870.14,-611.03 861.35,-605.12 859.58,-611.9"/>
</g>
<!-- 29 -->
<g id="node30" class="node">
<title>29</title>
<ellipse fill="#ffffff" stroke="black" cx="924.86" cy="-571" rx="71.16" ry="18"/>
<text text-anchor="middle" x="924.86" y="-566.8" font-family="Times,serif" font-size="14.00">lmFuel = storable</text>
</g>
<!-- 21&#45;&gt;29 -->
<g id="edge31" class="edge">
<title>21&#45;&gt;29</title>
<path fill="none" stroke="black" d="M746.9,-571C772.03,-571 808.8,-571 842.32,-571"/>
<polygon fill="black" stroke="black" points="842.03,-574.5 852.03,-571 842.03,-567.5 842.03,-574.5"/>
</g>
<!-- 30 -->
<g id="node31" class="node">
<title>30</title>
<ellipse fill="#ffffff" stroke="black" cx="924.86" cy="-517" rx="78.46" ry="18"/>
<text text-anchor="middle" x="924.86" y="-512.8" font-family="Times,serif" font-size="14.00">lmFuel = cryogenic</text>
</g>
<!-- 22&#45;&gt;30 -->
<g id="edge32" class="edge">
<title>22&#45;&gt;30</title>
<path fill="none" stroke="black" d="M746.9,-517C770.1,-517 803.23,-517 834.56,-517"/>
<polygon fill="black" stroke="black" points="834.49,-520.5 844.49,-517 834.49,-513.5 834.49,-520.5"/>
</g>
<!-- 31 -->
<g id="node32" class="node">
<title>31</title>
<ellipse fill="#ffffff" stroke="black" cx="924.86" cy="-463" rx="71.16" ry="18"/>
<text text-anchor="middle" x="924.86" y="-458.8" font-family="Times,serif" font-size="14.00">lmFuel = storable</text>
</g>
<!-- 22&#45;&gt;31 -->
<g id="edge33" class="edge">
<title>22&#45;&gt;31</title>
<path fill="none" stroke="black" d="M744.26,-509.72C774.55,-501.84 823.76,-489.04 863.02,-478.83"/>
<polygon fill="black" stroke="black" points="863.8,-482.24 872.6,-476.33 862.04,-475.46 863.8,-482.24"/>
</g>
<!-- 32 -->
<g id="node33" class="node">
<title>32</title>
<ellipse fill="#ffffff" stroke="black" stroke-width="2" cx="58.56" cy="-235" rx="27" ry="18"/>
<text text-anchor="start" x="44.18" y="-231.8" font-family="Times,serif" font-weight="bold" font-size="14.00">crew</text>
</g>
<!-- 33 -->
<g id="node34" class="node">
<title>33</title>
<ellipse fill="#81d4fa" stroke="black" cx="198.13" cy="-235" rx="27" ry="18"/>
<text text-anchor="middle" x="198.13" y="-230.8" font-family="Times,serif" font-size="14.00">crew</text>
</g>
<!-- 32&#45;&gt;33 -->
<g id="edge34" class="edge">
<title>32&#45;&gt;33</title>
<path fill="none" stroke="black" d="M85.76,-235C106.7,-235 136.32,-235 159.75,-235"/>
<polygon fill="black" stroke="black" points="159.51,-238.5 169.51,-235 159.51,-231.5 159.51,-238.5"/>
</g>
<!-- 34 -->
<g id="node35" class="node">
<title>34</title>
<ellipse fill="#ffffff" stroke="black" cx="358.63" cy="-262" rx="51.33" ry="18"/>
<text text-anchor="middle" x="358.63" y="-257.8" font-family="Times,serif" font-size="14.00">cmCrew = 2</text>
</g>
<!-- 33&#45;&gt;34 -->
<g id="edge35" class="edge">
<title>33&#45;&gt;34</title>
<path fill="none" stroke="black" d="M224.59,-239.34C245.02,-242.82 274.48,-247.84 300.49,-252.27"/>
<polygon fill="black" stroke="black" points="299.83,-255.7 310.28,-253.93 301,-248.8 299.83,-255.7"/>
</g>
<!-- 35 -->
<g id="node36" class="node">
<title>35</title>
<ellipse fill="#ffffff" stroke="black" cx="358.63" cy="-208" rx="51.33" ry="18"/>
<text text-anchor="middle" x="358.63" y="-203.8" font-family="Times,serif" font-size="14.00">cmCrew = 3</text>
</g>
<!-- 33&#45;&gt;35 -->
<g id="edge36" class="edge">
<title>33&#45;&gt;35</title>
<path fill="none" stroke="black" d="M224.59,-230.66C245.02,-227.18 274.48,-222.16 300.49,-217.73"/>
<polygon fill="black" stroke="black" points="301,-221.2 310.28,-216.07 299.83,-214.3 301,-221.2"/>
</g>
<!-- 34&#45;&gt;27 -->
<g id="edge37" class="edge">
<title>34&#45;&gt;27</title>
<path fill="none" stroke="red" d="M379.17,-278.7C401.09,-296.77 438.3,-325.48 474.14,-344 520.08,-367.75 536.01,-363.04 584.13,-382 600.42,-388.42 603.45,-392.7 620.13,-398 702.32,-424.12 751.43,-373.09 810.4,-436 893.2,-524.32 769.91,-612.17 846.4,-706 854.5,-715.93 866.48,-722.22 878.61,-726.2"/>
</g>
<!-- 36 -->
<g id="node37" class="node">
<title>36</title>
<ellipse fill="#ffffff" stroke="black" stroke-width="2" cx="58.56" cy="-544" rx="34.05" ry="18"/>
<text text-anchor="start" x="36.78" y="-540.8" font-family="Times,serif" font-weight="bold" font-size="14.00">smFuel</text>
</g>
<!-- 37 -->
<g id="node38" class="node">
<title>37</title>
<ellipse fill="#81d4fa" stroke="black" cx="198.13" cy="-544" rx="32.49" ry="18"/>
<text text-anchor="middle" x="198.13" y="-539.8" font-family="Times,serif" font-size="14.00">smFuel</text>
</g>
<!-- 36&#45;&gt;37 -->
<g id="edge38" class="edge">
<title>36&#45;&gt;37</title>
<path fill="none" stroke="black" d="M92.86,-544C111.25,-544 134.31,-544 154.06,-544"/>
<polygon fill="black" stroke="black" points="154.04,-547.5 164.04,-544 154.04,-540.5 154.04,-547.5"/>
</g>
<!-- 38 -->
<g id="node39" class="node">
<title>38</title>
<ellipse fill="#ffffff" stroke="black" cx="358.63" cy="-585" rx="79.5" ry="18"/>
<text text-anchor="middle" x="358.63" y="-580.8" font-family="Times,serif" font-size="14.00">smFuel = cryogenic</text>
</g>
<!-- 37&#45;&gt;38 -->
<g id="edge39" class="edge">
<title>37&#45;&gt;38</title>
<path fill="none" stroke="black" d="M228.2,-551.52C246.63,-556.29 271.22,-562.65 294.01,-568.54"/>
<polygon fill="black" stroke="black" points="293,-571.9 303.55,-571.01 294.75,-565.12 293,-571.9"/>
</g>
<!-- 39 -->
<g id="node40" class="node">
<title>39</title>
<ellipse fill="#ffffff" stroke="black" cx="358.63" cy="-531" rx="72.21" ry="18"/>
<text text-anchor="middle" x="358.63" y="-526.8" font-family="Times,serif" font-size="14.00">smFuel = storable</text>
</g>
<!-- 37&#45;&gt;39 -->
<g id="edge40" class="edge">
<title>37&#45;&gt;39</title>
<path fill="none" stroke="black" d="M230.44,-541.43C244.28,-540.3 261.25,-538.91 278.22,-537.51"/>
<polygon fill="black" stroke="black" points="278.15,-541.03 287.83,-536.72 277.58,-534.05 278.15,-541.03"/>
</g>
<!-- 40 -->
<g id="node41" class="node">
<title>40</title>
<ellipse fill="#ffffff" stroke="black" stroke-width="2" cx="58.56" cy="-666" rx="34.05" ry="18"/>
<text text-anchor="start" x="36.78" y="-662.8" font-family="Times,serif" font-weight="bold" font-size="14.00">smFuel</text>
</g>
<!-- 41 -->
<g id="node42" class="node">
<title>41</title>
<ellipse fill="#81d4fa" stroke="black" cx="198.13" cy="-666" rx="32.49" ry="18"/>
<text text-anchor="middle" x="198.13" y="-661.8" font-family="Times,serif" font-size="14.00">smFuel</text>
</g>
<!-- 40&#45;&gt;41 -->
<g id="edge41" class="edge">
<title>40&#45;&gt;41</title>
<path fill="none" stroke="black" d="M92.86,-666C111.25,-666 134.31,-666 154.06,-666"/>
<polygon fill="black" stroke="black" points="154.04,-669.5 164.04,-666 154.04,-662.5 154.04,-669.5"/>
</g>
<!-- 42 -->
<g id="node43" class="node">
<title>42</title>
<ellipse fill="#ffffff" stroke="black" cx="358.63" cy="-693" rx="79.5" ry="18"/>
<text text-anchor="middle" x="358.63" y="-688.8" font-family="Times,serif" font-size="14.00">smFuel = cryogenic</text>
</g>
<!-- 41&#45;&gt;42 -->
<g id="edge42" class="edge">
<title>41&#45;&gt;42</title>
<path fill="none" stroke="black" d="M229.69,-671.21C244.88,-673.79 263.98,-677.05 282.74,-680.24"/>
<polygon fill="black" stroke="black" points="282.1,-683.68 292.54,-681.91 283.27,-676.78 282.1,-683.68"/>
</g>
<!-- 43 -->
<g id="node44" class="node">
<title>43</title>
<ellipse fill="#ffffff" stroke="black" cx="358.63" cy="-639" rx="72.21" ry="18"/>
<text text-anchor="middle" x="358.63" y="-634.8" font-family="Times,serif" font-size="14.00">smFuel = storable</text>
</g>
<!-- 41&#45;&gt;43 -->
<g id="edge43" class="edge">
<title>41&#45;&gt;43</title>
<path fill="none" stroke="black" d="M229.69,-660.79C245.93,-658.03 266.63,-654.5 286.62,-651.1"/>
<polygon fill="black" stroke="black" points="287.19,-654.55 296.46,-649.42 286.01,-647.65 287.19,-654.55"/>
</g>
</g>
</svg>
