<?xml version="1.0" encoding="UTF-8" standalone="no"?>
<!DOCTYPE svg PUBLIC "-//W3C//DTD SVG 1.1//EN"
 "http://www.w3.org/Graphics/SVG/1.1/DTD/svg11.dtd">
<!-- Generated by graphviz version 9.0.0 (20230911.1827)
 -->
<!-- Pages: 1 -->
<svg width="905pt" height="593pt"
 viewBox="0.00 0.00 1086.30 711.16" xmlns="http://www.w3.org/2000/svg" xmlns:xlink="http://www.w3.org/1999/xlink">
<g id="graph0" class="graph" transform="scale(0.833333 0.833333) rotate(0) translate(4 707.16)">
<polygon fill="white" stroke="none" points="-4,4 -4,-707.16 1082.3,-707.16 1082.3,4 -4,4"/>
<!-- 0 -->
<g id="node1" class="node">
<title>0</title>
<ellipse fill="#ffffff" stroke="black" stroke-width="2" cx="27" cy="-346" rx="27" ry="18"/>
<text text-anchor="start" x="11.44" y="-342.8" font-family="Times,serif" font-weight="bold" font-size="14.00">GNC</text>
</g>
<!-- 1 -->
<g id="node2" class="node">
<title>1</title>
<polygon fill="#dce775" stroke="black" points="179.06,-445 109.26,-445 109.26,-409 179.06,-409 179.06,-445"/>
<text text-anchor="middle" x="144.16" y="-422.8" font-family="Times,serif" font-size="14.00">mass [min]</text>
</g>
<!-- 0&#45;&gt;1 -->
<g id="edge1" class="edge">
<title>0&#45;&gt;1</title>
<path fill="none" stroke="black" d="M43.24,-360.83C55.52,-372.33 73.56,-388.24 91,-400 93.53,-401.7 96.18,-403.38 98.89,-405.01"/>
<polygon fill="black" stroke="black" points="97.1,-408.02 107.52,-409.93 100.56,-401.93 97.1,-408.02"/>
</g>
<!-- 2 -->
<g id="node3" class="node">
<title>2</title>
<polygon fill="#dce775" stroke="black" points="197.31,-391 91,-391 91,-355 197.31,-355 197.31,-391"/>
<text text-anchor="middle" x="144.16" y="-368.8" font-family="Times,serif" font-size="14.00">failureRate [max]</text>
</g>
<!-- 0&#45;&gt;2 -->
<g id="edge2" class="edge">
<title>0&#45;&gt;2</title>
<path fill="none" stroke="black" d="M52.99,-351.86C60.97,-353.73 70.21,-355.9 79.66,-358.11"/>
<polygon fill="black" stroke="black" points="78.78,-361.5 89.32,-360.38 80.38,-354.69 78.78,-361.5"/>
</g>
<!-- 3 -->
<g id="node4" class="node">
<title>3</title>
<ellipse fill="#ffffff" stroke="black" cx="144.16" cy="-319" rx="30.4" ry="18"/>
<text text-anchor="middle" x="144.16" y="-314.8" font-family="Times,serif" font-size="14.00">Sensor</text>
</g>
<!-- 0&#45;&gt;3 -->
<g id="edge3" class="edge">
<title>0&#45;&gt;3</title>
<path fill="none" stroke="black" d="M52.99,-340.14C68.07,-336.6 87.61,-332.02 104.64,-328.03"/>
<polygon fill="black" stroke="black" points="104.98,-331.55 113.92,-325.86 103.38,-324.73 104.98,-331.55"/>
</g>
<!-- 4 -->
<g id="node5" class="node">
<title>4</title>
<ellipse fill="#ffffff" stroke="black" cx="243.1" cy="-265" rx="27.79" ry="18"/>
<text text-anchor="middle" x="243.1" y="-260.8" font-family="Times,serif" font-size="14.00">Comp</text>
</g>
<!-- 0&#45;&gt;4 -->
<g id="edge4" class="edge">
<title>0&#45;&gt;4</title>
<path fill="none" stroke="black" d="M41.65,-330.4C53.45,-317.98 71.61,-301.2 91,-292 126.76,-275.04 171.89,-268.67 203.48,-266.31"/>
<polygon fill="black" stroke="black" points="203.61,-269.81 213.37,-265.69 203.16,-262.83 203.61,-269.81"/>
</g>
<!-- 5 -->
<g id="node6" class="node">
<title>5</title>
<ellipse fill="#81d4fa" stroke="black" cx="315.9" cy="-328" rx="27" ry="18"/>
<text text-anchor="middle" x="315.9" y="-323.8" font-family="Times,serif" font-size="14.00">S</text>
</g>
<!-- 3&#45;&gt;5 -->
<g id="edge5" class="edge">
<title>3&#45;&gt;5</title>
<path fill="none" stroke="black" d="M174.72,-320.57C203.27,-322.08 246.62,-324.38 277.54,-326.02"/>
<polygon fill="black" stroke="black" points="277.05,-329.5 287.22,-326.53 277.42,-322.51 277.05,-329.5"/>
</g>
<!-- 6 -->
<g id="node7" class="node">
<title>6</title>
<ellipse fill="#81d4fa" stroke="black" cx="506.5" cy="-228" rx="27" ry="18"/>
<text text-anchor="middle" x="506.5" y="-223.8" font-family="Times,serif" font-size="14.00">C</text>
</g>
<!-- 4&#45;&gt;6 -->
<g id="edge6" class="edge">
<title>4&#45;&gt;6</title>
<path fill="none" stroke="black" d="M270.61,-261.25C317.43,-254.62 414.87,-240.83 468.36,-233.26"/>
<polygon fill="black" stroke="black" points="468.79,-236.73 478.2,-231.86 467.81,-229.8 468.79,-236.73"/>
</g>
<!-- 7 -->
<g id="node8" class="node">
<title>7</title>
<ellipse fill="#ffffff" stroke="black" cx="603.23" cy="-416" rx="29.87" ry="18"/>
<text text-anchor="middle" x="603.23" y="-411.8" font-family="Times,serif" font-size="14.00">Inst[0]</text>
</g>
<!-- 5&#45;&gt;7 -->
<g id="edge7" class="edge">
<title>5&#45;&gt;7</title>
<path fill="none" stroke="black" d="M343.19,-329.24C368.34,-330.94 407.15,-334.9 439.63,-344 486.91,-357.25 538.19,-381.82 570.26,-398.54"/>
<polygon fill="black" stroke="black" points="568.55,-401.59 579.03,-403.17 571.82,-395.4 568.55,-401.59"/>
</g>
<!-- 8 -->
<g id="node9" class="node">
<title>8</title>
<ellipse fill="#ffffff" stroke="black" cx="506.5" cy="-416" rx="29.87" ry="18"/>
<text text-anchor="middle" x="506.5" y="-411.8" font-family="Times,serif" font-size="14.00">Inst[1]</text>
</g>
<!-- 5&#45;&gt;8 -->
<g id="edge8" class="edge">
<title>5&#45;&gt;8</title>
<path fill="none" stroke="black" d="M341.14,-334.77C366.43,-342.27 406.88,-355.5 439.63,-372 452.87,-378.67 466.64,-387.53 478.15,-395.54"/>
<polygon fill="black" stroke="black" points="475.81,-398.18 485.99,-401.14 479.88,-392.48 475.81,-398.18"/>
</g>
<!-- 9 -->
<g id="node10" class="node">
<title>9</title>
<ellipse fill="#ffffff" stroke="black" cx="409.76" cy="-399" rx="29.87" ry="18"/>
<text text-anchor="middle" x="409.76" y="-394.8" font-family="Times,serif" font-size="14.00">Inst[2]</text>
</g>
<!-- 5&#45;&gt;9 -->
<g id="edge9" class="edge">
<title>5&#45;&gt;9</title>
<path fill="none" stroke="black" d="M334.17,-341.35C347.52,-351.67 366.23,-366.13 381.58,-377.99"/>
<polygon fill="black" stroke="black" points="379.37,-380.71 389.42,-384.05 383.65,-375.17 379.37,-380.71"/>
</g>
<!-- 24 -->
<g id="node25" class="node">
<title>24</title>
<ellipse fill="#ffffff" stroke="black" cx="822.7" cy="-250" rx="29.87" ry="18"/>
<text text-anchor="middle" x="822.7" y="-245.8" font-family="Times,serif" font-size="14.00">Inst[0]</text>
</g>
<!-- 6&#45;&gt;24 -->
<g id="edge10" class="edge">
<title>6&#45;&gt;24</title>
<path fill="none" stroke="black" d="M532.72,-232.86C539.71,-234.06 547.31,-235.22 554.37,-236 634.5,-244.91 728.8,-248.17 781.26,-249.35"/>
<polygon fill="black" stroke="black" points="781.15,-252.85 791.22,-249.56 781.3,-245.85 781.15,-252.85"/>
</g>
<!-- 25 -->
<g id="node26" class="node">
<title>25</title>
<ellipse fill="#ffffff" stroke="black" cx="699.97" cy="-200" rx="29.87" ry="18"/>
<text text-anchor="middle" x="699.97" y="-195.8" font-family="Times,serif" font-size="14.00">Inst[1]</text>
</g>
<!-- 6&#45;&gt;25 -->
<g id="edge11" class="edge">
<title>6&#45;&gt;25</title>
<path fill="none" stroke="black" d="M533.32,-224.22C565.7,-219.49 621.53,-211.32 659.34,-205.8"/>
<polygon fill="black" stroke="black" points="659.56,-209.3 668.95,-204.39 658.54,-202.37 659.56,-209.3"/>
</g>
<!-- 26 -->
<g id="node27" class="node">
<title>26</title>
<ellipse fill="#ffffff" stroke="black" cx="603.23" cy="-141" rx="29.87" ry="18"/>
<text text-anchor="middle" x="603.23" y="-136.8" font-family="Times,serif" font-size="14.00">Inst[2]</text>
</g>
<!-- 6&#45;&gt;26 -->
<g id="edge12" class="edge">
<title>6&#45;&gt;26</title>
<path fill="none" stroke="black" d="M523.14,-213.63C537.91,-200.07 560.29,-179.52 577.48,-163.73"/>
<polygon fill="black" stroke="black" points="579.82,-166.34 584.82,-157 575.08,-161.18 579.82,-166.34"/>
</g>
<!-- 10 -->
<g id="node11" class="node">
<title>10</title>
<ellipse fill="#81d4fa" stroke="black" cx="699.97" cy="-520" rx="27" ry="18"/>
<text text-anchor="middle" x="699.97" y="-515.8" font-family="Times,serif" font-size="14.00">ST0</text>
</g>
<!-- 7&#45;&gt;10 -->
<g id="edge13" class="edge">
<title>7&#45;&gt;10</title>
<path fill="none" stroke="black" d="M618.3,-431.73C631.58,-446.56 652.11,-469.37 670.1,-489 672.34,-491.44 674.68,-493.98 677.02,-496.51"/>
<polygon fill="black" stroke="black" points="674.42,-498.86 683.8,-503.8 679.55,-494.09 674.42,-498.86"/>
</g>
<!-- 11 -->
<g id="node12" class="node">
<title>11</title>
<polygon fill="#ffffff" stroke="black" points="726.97,-406 713.47,-424 686.47,-424 672.97,-406 686.47,-388 713.47,-388 726.97,-406"/>
<text text-anchor="middle" x="699.97" y="-401.8" font-family="Times,serif" font-size="14.00">SC0</text>
</g>
<!-- 7&#45;&gt;11 -->
<g id="edge14" class="edge">
<title>7&#45;&gt;11</title>
<path fill="none" stroke="black" d="M633.17,-412.95C642.64,-411.95 653.26,-410.82 663.17,-409.78"/>
<polygon fill="black" stroke="black" points="663.28,-413.29 672.86,-408.76 662.54,-406.33 663.28,-413.29"/>
</g>
<!-- 8&#45;&gt;7 -->
<g id="edge17" class="edge">
<title>8&#45;&gt;7</title>
<path fill="none" stroke="black" d="M536.7,-416C544.53,-416 553.14,-416 561.48,-416"/>
<polygon fill="black" stroke="black" points="561.46,-419.5 571.46,-416 561.46,-412.5 561.46,-419.5"/>
</g>
<!-- 12 -->
<g id="node13" class="node">
<title>12</title>
<ellipse fill="#81d4fa" stroke="black" cx="699.97" cy="-584" rx="27" ry="18"/>
<text text-anchor="middle" x="699.97" y="-579.8" font-family="Times,serif" font-size="14.00">ST1</text>
</g>
<!-- 8&#45;&gt;12 -->
<g id="edge15" class="edge">
<title>8&#45;&gt;12</title>
<path fill="none" stroke="black" d="M524.16,-430.62C557.92,-460.24 634.57,-527.5 674.21,-562.27"/>
<polygon fill="black" stroke="black" points="671.8,-564.81 681.62,-568.78 676.41,-559.55 671.8,-564.81"/>
</g>
<!-- 13 -->
<g id="node14" class="node">
<title>13</title>
<polygon fill="#ffffff" stroke="black" points="726.97,-462 713.47,-480 686.47,-480 672.97,-462 686.47,-444 713.47,-444 726.97,-462"/>
<text text-anchor="middle" x="699.97" y="-457.8" font-family="Times,serif" font-size="14.00">SC1</text>
</g>
<!-- 8&#45;&gt;13 -->
<g id="edge16" class="edge">
<title>8&#45;&gt;13</title>
<path fill="none" stroke="black" d="M530.5,-427.01C542.94,-432.56 558.71,-438.95 573.37,-443 602.91,-451.16 637.4,-456.06 662.75,-458.84"/>
<polygon fill="black" stroke="black" points="662.24,-462.3 672.55,-459.84 662.96,-455.34 662.24,-462.3"/>
</g>
<!-- 9&#45;&gt;8 -->
<g id="edge20" class="edge">
<title>9&#45;&gt;8</title>
<path fill="none" stroke="black" d="M438.93,-404.05C447.52,-405.6 457.13,-407.32 466.31,-408.97"/>
<polygon fill="black" stroke="black" points="465.65,-412.41 476.11,-410.73 466.89,-405.52 465.65,-412.41"/>
</g>
<!-- 14 -->
<g id="node15" class="node">
<title>14</title>
<ellipse fill="#81d4fa" stroke="black" cx="699.97" cy="-666" rx="27" ry="18"/>
<text text-anchor="middle" x="699.97" y="-661.8" font-family="Times,serif" font-size="14.00">ST2</text>
</g>
<!-- 9&#45;&gt;14 -->
<g id="edge18" class="edge">
<title>9&#45;&gt;14</title>
<path fill="none" stroke="black" d="M427.08,-414.12C475.35,-458.83 617.58,-590.6 674.76,-643.57"/>
<polygon fill="black" stroke="black" points="672.36,-646.12 682.07,-650.34 677.11,-640.98 672.36,-646.12"/>
</g>
<!-- 15 -->
<g id="node16" class="node">
<title>15</title>
<polygon fill="#ffffff" stroke="black" points="726.97,-352 713.47,-370 686.47,-370 672.97,-352 686.47,-334 713.47,-334 726.97,-352"/>
<text text-anchor="middle" x="699.97" y="-347.8" font-family="Times,serif" font-size="14.00">SC2</text>
</g>
<!-- 9&#45;&gt;15 -->
<g id="edge19" class="edge">
<title>9&#45;&gt;15</title>
<path fill="none" stroke="black" d="M438.92,-394.41C492.06,-385.74 606.94,-367.01 664.56,-357.61"/>
<polygon fill="black" stroke="black" points="664.81,-361.12 674.12,-356.05 663.68,-354.21 664.81,-361.12"/>
</g>
<!-- 16 -->
<g id="node17" class="node">
<title>16</title>
<ellipse fill="#ffffff" stroke="black" cx="822.7" cy="-665" rx="35.87" ry="18"/>
<text text-anchor="middle" x="822.7" y="-660.8" font-family="Times,serif" font-size="14.00">Type: A</text>
</g>
<!-- 10&#45;&gt;16 -->
<g id="edge21" class="edge">
<title>10&#45;&gt;16</title>
<path fill="none" stroke="black" d="M714.12,-535.79C734.95,-560.8 775.7,-609.75 800.64,-639.7"/>
<polygon fill="black" stroke="black" points="797.77,-641.73 806.86,-647.17 803.15,-637.25 797.77,-641.73"/>
</g>
<!-- 17 -->
<g id="node18" class="node">
<title>17</title>
<ellipse fill="#ffffff" stroke="black" cx="822.7" cy="-592" rx="35.35" ry="18"/>
<text text-anchor="middle" x="822.7" y="-587.8" font-family="Times,serif" font-size="14.00">Type: B</text>
</g>
<!-- 10&#45;&gt;17 -->
<g id="edge22" class="edge">
<title>10&#45;&gt;17</title>
<path fill="none" stroke="black" d="M720.91,-531.89C739.41,-542.92 767.29,-559.55 789.04,-572.52"/>
<polygon fill="black" stroke="black" points="787.17,-575.48 797.55,-577.6 790.76,-569.47 787.17,-575.48"/>
</g>
<!-- 18 -->
<g id="node19" class="node">
<title>18</title>
<ellipse fill="#ffffff" stroke="black" cx="822.7" cy="-538" rx="35.35" ry="18"/>
<text text-anchor="middle" x="822.7" y="-533.8" font-family="Times,serif" font-size="14.00">Type: C</text>
</g>
<!-- 10&#45;&gt;18 -->
<g id="edge23" class="edge">
<title>10&#45;&gt;18</title>
<path fill="none" stroke="black" d="M726.78,-523.2C739.47,-524.82 754.97,-526.9 768.84,-529 771.66,-529.43 774.56,-529.88 777.48,-530.35"/>
<polygon fill="black" stroke="black" points="776.81,-533.78 787.24,-531.95 777.94,-526.88 776.81,-533.78"/>
</g>
<!-- 19 -->
<g id="node20" class="node">
<title>19</title>
<polygon fill="#81d4fa" stroke="black" points="851.78,-399 837.24,-417 808.16,-417 793.63,-399 808.16,-381 837.24,-381 851.78,-399"/>
<text text-anchor="middle" x="822.7" y="-394.8" font-family="Times,serif" font-size="14.00">Conn</text>
</g>
<!-- 11&#45;&gt;19 -->
<g id="edge24" class="edge">
<title>11&#45;&gt;19</title>
<path fill="none" stroke="black" stroke-dasharray="5,2" d="M726.28,-404.53C742.69,-403.58 764.4,-402.32 782.96,-401.25"/>
<polygon fill="black" stroke="black" points="783.03,-404.75 792.81,-400.67 782.63,-397.76 783.03,-404.75"/>
<text text-anchor="middle" x="758.34" y="-407.2" font-family="Times,serif" font-size="14.00">1..*</text>
</g>
<!-- 20 -->
<g id="node21" class="node">
<title>20</title>
<polygon fill="#81d4fa" stroke="black" points="851.78,-313 837.24,-331 808.16,-331 793.63,-313 808.16,-295 837.24,-295 851.78,-313"/>
<text text-anchor="middle" x="822.7" y="-308.8" font-family="Times,serif" font-size="14.00">Conn</text>
</g>
<!-- 11&#45;&gt;20 -->
<g id="edge25" class="edge">
<title>11&#45;&gt;20</title>
<path fill="none" stroke="black" stroke-dasharray="5,2" d="M716.99,-392.4C721.39,-388.31 726,-383.66 729.84,-379 739.43,-367.35 736.68,-360.37 747.84,-350.2 759.64,-339.44 775.14,-331 788.89,-324.91"/>
<polygon fill="black" stroke="black" points="790.15,-328.17 798.04,-321.1 787.46,-321.71 790.15,-328.17"/>
<text text-anchor="middle" x="758.34" y="-355.2" font-family="Times,serif" font-size="14.00">1..*</text>
</g>
<!-- 12&#45;&gt;16 -->
<g id="edge26" class="edge">
<title>12&#45;&gt;16</title>
<path fill="none" stroke="black" d="M708.47,-601.48C716.08,-617.01 729.36,-639.06 747.84,-651 756.03,-656.3 765.74,-659.69 775.37,-661.85"/>
<polygon fill="black" stroke="black" points="774.61,-665.27 785.07,-663.58 775.84,-658.38 774.61,-665.27"/>
</g>
<!-- 12&#45;&gt;17 -->
<g id="edge27" class="edge">
<title>12&#45;&gt;17</title>
<path fill="none" stroke="black" d="M727.17,-585.74C741.48,-586.68 759.61,-587.89 776.16,-588.98"/>
<polygon fill="black" stroke="black" points="775.58,-592.45 785.79,-589.62 776.04,-585.47 775.58,-592.45"/>
</g>
<!-- 12&#45;&gt;18 -->
<g id="edge28" class="edge">
<title>12&#45;&gt;18</title>
<path fill="none" stroke="black" d="M723.96,-575.24C740.63,-568.89 763.55,-560.16 783.01,-552.74"/>
<polygon fill="black" stroke="black" points="784.19,-556.04 792.29,-549.21 781.7,-549.5 784.19,-556.04"/>
</g>
<!-- 13&#45;&gt;19 -->
<g id="edge29" class="edge">
<title>13&#45;&gt;19</title>
<path fill="none" stroke="black" stroke-dasharray="5,2" d="M724.35,-466.28C737.96,-467.67 755.08,-467.47 768.84,-461 784.14,-453.8 796.67,-439.81 805.69,-426.94"/>
<polygon fill="black" stroke="black" points="808.53,-428.99 811.07,-418.71 802.67,-425.17 808.53,-428.99"/>
<text text-anchor="middle" x="758.34" y="-470.2" font-family="Times,serif" font-size="14.00">1..*</text>
</g>
<!-- 13&#45;&gt;20 -->
<g id="edge30" class="edge">
<title>13&#45;&gt;20</title>
<path fill="none" stroke="black" stroke-dasharray="5,2" d="M721.33,-454.1C736.33,-447.35 756.22,-436.29 768.84,-421 783.6,-403.1 776.89,-392.96 786.84,-372 791.74,-361.66 797.88,-350.76 803.64,-341.18"/>
<polygon fill="black" stroke="black" points="806.61,-343.03 808.87,-332.68 800.65,-339.36 806.61,-343.03"/>
<text text-anchor="middle" x="758.34" y="-443.2" font-family="Times,serif" font-size="14.00">1..*</text>
</g>
<!-- 14&#45;&gt;16 -->
<g id="edge31" class="edge">
<title>14&#45;&gt;16</title>
<path fill="none" stroke="black" d="M715.56,-680.79C724.15,-688.42 735.69,-696.97 747.84,-701 756.69,-703.94 759.92,-703.75 768.84,-701 778.19,-698.12 787.37,-692.95 795.39,-687.42"/>
<polygon fill="black" stroke="black" points="797.38,-690.29 803.31,-681.51 793.2,-684.68 797.38,-690.29"/>
</g>
<!-- 14&#45;&gt;17 -->
<g id="edge32" class="edge">
<title>14&#45;&gt;17</title>
<path fill="none" stroke="black" d="M722.11,-655.25C735.67,-648.17 753.55,-638.47 768.84,-629 776.74,-624.1 785.07,-618.49 792.72,-613.15"/>
<polygon fill="black" stroke="black" points="794.6,-616.11 800.74,-607.47 790.56,-610.39 794.6,-616.11"/>
</g>
<!-- 14&#45;&gt;18 -->
<g id="edge33" class="edge">
<title>14&#45;&gt;18</title>
<path fill="none" stroke="black" d="M712.84,-650.07C728.62,-629.38 757.88,-592.66 786.84,-565 788.64,-563.28 790.54,-561.56 792.49,-559.87"/>
<polygon fill="black" stroke="black" points="794.52,-562.74 800.03,-553.7 790.08,-557.33 794.52,-562.74"/>
</g>
<!-- 15&#45;&gt;19 -->
<g id="edge34" class="edge">
<title>15&#45;&gt;19</title>
<path fill="none" stroke="black" stroke-dasharray="5,2" d="M721.45,-359.97C740.01,-367.2 767.68,-377.97 789.25,-386.37"/>
<polygon fill="black" stroke="black" points="787.9,-389.6 798.49,-389.96 790.44,-383.07 787.9,-389.6"/>
<text text-anchor="middle" x="758.34" y="-382.2" font-family="Times,serif" font-size="14.00">1..*</text>
</g>
<!-- 15&#45;&gt;20 -->
<g id="edge35" class="edge">
<title>15&#45;&gt;20</title>
<path fill="none" stroke="black" stroke-dasharray="5,2" d="M707.79,-333.79C714.99,-317.48 728.07,-294.57 747.84,-284.2 763.19,-276.15 781.31,-282.99 795.77,-292.02"/>
<polygon fill="black" stroke="black" points="793.64,-294.8 803.86,-297.6 797.62,-289.04 793.64,-294.8"/>
<text text-anchor="middle" x="758.34" y="-289.2" font-family="Times,serif" font-size="14.00">1..*</text>
</g>
<!-- 21 -->
<g id="node22" class="node">
<title>21</title>
<polygon fill="#ffffff" stroke="black" points="969.57,-356 956.07,-374 929.07,-374 915.57,-356 929.07,-338 956.07,-338 969.57,-356"/>
<text text-anchor="middle" x="942.57" y="-351.8" font-family="Times,serif" font-size="14.00">CC0</text>
</g>
<!-- 19&#45;&gt;21 -->
<g id="edge36" class="edge">
<title>19&#45;&gt;21</title>
<path fill="none" stroke="black" stroke-dasharray="5,2" d="M843.42,-409.63C858.84,-416.42 880.46,-422.5 897.57,-414 910.35,-407.65 920.42,-395.62 927.68,-384.15"/>
<polygon fill="black" stroke="black" points="930.6,-386.1 932.58,-375.69 924.54,-382.59 930.6,-386.1"/>
<text text-anchor="middle" x="887.07" y="-422.2" font-family="Times,serif" font-size="14.00">1..*</text>
</g>
<!-- 22 -->
<g id="node23" class="node">
<title>22</title>
<polygon fill="#ffffff" stroke="black" points="969.57,-261 956.07,-279 929.07,-279 915.57,-261 929.07,-243 956.07,-243 969.57,-261"/>
<text text-anchor="middle" x="942.57" y="-256.8" font-family="Times,serif" font-size="14.00">CC1</text>
</g>
<!-- 19&#45;&gt;22 -->
<g id="edge37" class="edge">
<title>19&#45;&gt;22</title>
<path fill="none" stroke="black" stroke-dasharray="5,2" d="M846.61,-392.19C862.66,-386.41 883.66,-376.68 897.57,-362 902.88,-356.39 919.01,-317.64 930.19,-289.81"/>
<polygon fill="black" stroke="black" points="933.33,-291.4 933.78,-280.81 926.82,-288.8 933.33,-291.4"/>
<text text-anchor="middle" x="887.07" y="-381.2" font-family="Times,serif" font-size="14.00">1..*</text>
</g>
<!-- 23 -->
<g id="node24" class="node">
<title>23</title>
<polygon fill="#ffffff" stroke="black" points="969.57,-207 956.07,-225 929.07,-225 915.57,-207 929.07,-189 956.07,-189 969.57,-207"/>
<text text-anchor="middle" x="942.57" y="-202.8" font-family="Times,serif" font-size="14.00">CC2</text>
</g>
<!-- 19&#45;&gt;23 -->
<g id="edge38" class="edge">
<title>19&#45;&gt;23</title>
<path fill="none" stroke="black" stroke-dasharray="5,2" d="M834.69,-380.75C841.63,-369.14 850.73,-353.75 858.57,-340 876.4,-308.72 880.67,-300.79 897.57,-269 905.78,-253.56 905.39,-248.23 915.57,-234 916.54,-232.64 917.58,-231.29 918.65,-229.95"/>
<polygon fill="black" stroke="black" points="921.16,-232.39 925.16,-222.58 915.92,-227.76 921.16,-232.39"/>
<text text-anchor="middle" x="887.07" y="-312.2" font-family="Times,serif" font-size="14.00">1..*</text>
</g>
<!-- 20&#45;&gt;21 -->
<g id="edge39" class="edge">
<title>20&#45;&gt;21</title>
<path fill="none" stroke="black" stroke-dasharray="5,2" d="M845.21,-321.84C854.77,-325.69 866.19,-330.18 876.57,-334 887.24,-337.92 899,-341.98 909.54,-345.53"/>
<polygon fill="black" stroke="black" points="908.37,-348.82 918.96,-348.66 910.58,-342.18 908.37,-348.82"/>
<text text-anchor="middle" x="887.07" y="-345.2" font-family="Times,serif" font-size="14.00">1..*</text>
</g>
<!-- 20&#45;&gt;22 -->
<g id="edge40" class="edge">
<title>20&#45;&gt;22</title>
<path fill="none" stroke="black" stroke-dasharray="5,2" d="M839.48,-297.68C845.64,-291.45 852.64,-284.06 858.57,-277 867.33,-266.57 864.44,-258.39 876.57,-252.2 886.88,-246.94 899.26,-247.25 910.43,-249.53"/>
<polygon fill="black" stroke="black" points="909.47,-252.9 920.04,-252.08 911.27,-246.13 909.47,-252.9"/>
<text text-anchor="middle" x="887.07" y="-257.2" font-family="Times,serif" font-size="14.00">1..*</text>
</g>
<!-- 20&#45;&gt;23 -->
<g id="edge41" class="edge">
<title>20&#45;&gt;23</title>
<path fill="none" stroke="black" stroke-dasharray="5,2" d="M840.56,-298.46C846.87,-292.34 853.68,-284.82 858.57,-277 871.03,-257.04 859.55,-243.46 876.57,-227.2 884.54,-219.59 895.33,-214.84 905.82,-211.88"/>
<polygon fill="black" stroke="black" points="906.52,-215.31 915.48,-209.66 904.95,-208.49 906.52,-215.31"/>
<text text-anchor="middle" x="887.07" y="-232.2" font-family="Times,serif" font-size="14.00">1..*</text>
</g>
<!-- 24&#45;&gt;21 -->
<g id="edge43" class="edge">
<title>24&#45;&gt;21</title>
<path fill="none" stroke="black" d="M839.35,-265.43C845.49,-271.68 852.51,-279.05 858.57,-286 867.1,-295.79 867.22,-300 876.57,-309 887.97,-319.97 902.05,-330.47 914.19,-338.74"/>
<polygon fill="black" stroke="black" points="911.9,-341.42 922.17,-344.03 915.77,-335.59 911.9,-341.42"/>
</g>
<!-- 27 -->
<g id="node28" class="node">
<title>27</title>
<ellipse fill="#81d4fa" stroke="black" cx="942.57" cy="-153" rx="27" ry="18"/>
<text text-anchor="middle" x="942.57" y="-148.8" font-family="Times,serif" font-size="14.00">CT0</text>
</g>
<!-- 24&#45;&gt;27 -->
<g id="edge42" class="edge">
<title>24&#45;&gt;27</title>
<path fill="none" stroke="black" d="M830.22,-232.1C838.16,-212.93 853.43,-183.1 876.57,-167 884.67,-161.36 894.62,-157.93 904.27,-155.85"/>
<polygon fill="black" stroke="black" points="904.56,-159.35 913.84,-154.25 903.4,-152.45 904.56,-159.35"/>
</g>
<!-- 25&#45;&gt;22 -->
<g id="edge45" class="edge">
<title>25&#45;&gt;22</title>
<path fill="none" stroke="black" d="M729.97,-201.75C761.99,-204.26 814.81,-210.08 858.57,-223 877.34,-228.54 897.32,-237.58 912.97,-245.45"/>
<polygon fill="black" stroke="black" points="911.21,-248.48 921.7,-249.96 914.42,-242.26 911.21,-248.48"/>
</g>
<!-- 25&#45;&gt;24 -->
<g id="edge46" class="edge">
<title>25&#45;&gt;24</title>
<path fill="none" stroke="black" d="M725.11,-210C742.88,-217.36 767.29,-227.47 787.12,-235.68"/>
<polygon fill="black" stroke="black" points="785.63,-238.85 796.2,-239.44 788.3,-232.38 785.63,-238.85"/>
</g>
<!-- 28 -->
<g id="node29" class="node">
<title>28</title>
<ellipse fill="#81d4fa" stroke="black" cx="942.57" cy="-99" rx="27" ry="18"/>
<text text-anchor="middle" x="942.57" y="-94.8" font-family="Times,serif" font-size="14.00">CT1</text>
</g>
<!-- 25&#45;&gt;28 -->
<g id="edge44" class="edge">
<title>25&#45;&gt;28</title>
<path fill="none" stroke="black" d="M724.92,-189.95C768.24,-171.76 859.65,-133.39 908.75,-112.78"/>
<polygon fill="black" stroke="black" points="909.86,-116.11 917.73,-109.01 907.15,-109.65 909.86,-116.11"/>
</g>
<!-- 26&#45;&gt;23 -->
<g id="edge48" class="edge">
<title>26&#45;&gt;23</title>
<path fill="none" stroke="black" d="M632.13,-146.46C693.63,-158.49 840.71,-187.27 907.52,-200.34"/>
<polygon fill="black" stroke="black" points="906.68,-203.74 917.16,-202.22 908.02,-196.87 906.68,-203.74"/>
</g>
<!-- 26&#45;&gt;25 -->
<g id="edge49" class="edge">
<title>26&#45;&gt;25</title>
<path fill="none" stroke="black" d="M624.79,-153.8C637.7,-161.84 654.57,-172.35 668.97,-181.31"/>
<polygon fill="black" stroke="black" points="666.83,-184.11 677.17,-186.42 670.53,-178.17 666.83,-184.11"/>
</g>
<!-- 29 -->
<g id="node30" class="node">
<title>29</title>
<ellipse fill="#81d4fa" stroke="black" cx="942.57" cy="-45" rx="27" ry="18"/>
<text text-anchor="middle" x="942.57" y="-40.8" font-family="Times,serif" font-size="14.00">CT2</text>
</g>
<!-- 26&#45;&gt;29 -->
<g id="edge47" class="edge">
<title>26&#45;&gt;29</title>
<path fill="none" stroke="black" d="M630.7,-133.47C691.05,-116.29 838.82,-74.24 906.58,-54.96"/>
<polygon fill="black" stroke="black" points="907.39,-58.37 916.05,-52.26 905.47,-51.63 907.39,-58.37"/>
</g>
<!-- 30 -->
<g id="node31" class="node">
<title>30</title>
<ellipse fill="#ffffff" stroke="black" cx="1042.43" cy="-145" rx="35.87" ry="18"/>
<text text-anchor="middle" x="1042.43" y="-140.8" font-family="Times,serif" font-size="14.00">Type: A</text>
</g>
<!-- 27&#45;&gt;30 -->
<g id="edge50" class="edge">
<title>27&#45;&gt;30</title>
<path fill="none" stroke="black" d="M956.46,-168.49C965.01,-176.79 976.79,-184.63 988.57,-181 997.92,-178.12 1007.1,-172.95 1015.12,-167.42"/>
<polygon fill="black" stroke="black" points="1017.12,-170.29 1023.04,-161.51 1012.93,-164.68 1017.12,-170.29"/>
</g>
<!-- 31 -->
<g id="node32" class="node">
<title>31</title>
<ellipse fill="#ffffff" stroke="black" cx="1042.43" cy="-72" rx="35.35" ry="18"/>
<text text-anchor="middle" x="1042.43" y="-67.8" font-family="Times,serif" font-size="14.00">Type: B</text>
</g>
<!-- 27&#45;&gt;31 -->
<g id="edge51" class="edge">
<title>27&#45;&gt;31</title>
<path fill="none" stroke="black" d="M960.17,-139.26C975.03,-126.96 997.09,-108.7 1014.48,-94.31"/>
<polygon fill="black" stroke="black" points="1016.45,-97.23 1021.92,-88.15 1011.98,-91.83 1016.45,-97.23"/>
</g>
<!-- 32 -->
<g id="node33" class="node">
<title>32</title>
<ellipse fill="#ffffff" stroke="black" cx="1042.43" cy="-18" rx="35.35" ry="18"/>
<text text-anchor="middle" x="1042.43" y="-13.8" font-family="Times,serif" font-size="14.00">Type: C</text>
</g>
<!-- 27&#45;&gt;32 -->
<g id="edge52" class="edge">
<title>27&#45;&gt;32</title>
<path fill="none" stroke="black" d="M959.39,-138.37C963,-134.55 966.64,-130.3 969.57,-126 991.83,-93.28 981.99,-76.02 1006.57,-45 1007.96,-43.24 1009.49,-41.54 1011.1,-39.89"/>
<polygon fill="black" stroke="black" points="1013.44,-42.5 1018.56,-33.23 1008.77,-37.28 1013.44,-42.5"/>
</g>
<!-- 28&#45;&gt;30 -->
<g id="edge53" class="edge">
<title>28&#45;&gt;30</title>
<path fill="none" stroke="black" d="M959.77,-113.04C967.7,-119.31 977.66,-126.32 987.57,-131 990.84,-132.55 994.32,-133.94 997.86,-135.2"/>
<polygon fill="black" stroke="black" points="996.52,-138.45 1007.11,-138.09 998.61,-131.77 996.52,-138.45"/>
</g>
<!-- 28&#45;&gt;31 -->
<g id="edge54" class="edge">
<title>28&#45;&gt;31</title>
<path fill="none" stroke="black" d="M968.01,-92.26C977.59,-89.61 988.86,-86.5 999.65,-83.53"/>
<polygon fill="black" stroke="black" points="1000.47,-86.93 1009.18,-80.9 998.61,-80.18 1000.47,-86.93"/>
</g>
<!-- 28&#45;&gt;32 -->
<g id="edge55" class="edge">
<title>28&#45;&gt;32</title>
<path fill="none" stroke="black" d="M959.7,-84.79C972.32,-73.77 990.38,-58.2 1006.57,-45 1008.7,-43.26 1010.92,-41.49 1013.15,-39.71"/>
<polygon fill="black" stroke="black" points="1014.85,-42.83 1020.56,-33.9 1010.53,-37.32 1014.85,-42.83"/>
</g>
<!-- 29&#45;&gt;30 -->
<g id="edge56" class="edge">
<title>29&#45;&gt;30</title>
<path fill="none" stroke="black" d="M958.01,-59.76C973.69,-75.77 998.97,-101.61 1017.6,-120.65"/>
<polygon fill="black" stroke="black" points="1015.08,-123.08 1024.58,-127.78 1020.08,-118.18 1015.08,-123.08"/>
</g>
<!-- 29&#45;&gt;31 -->
<g id="edge57" class="edge">
<title>29&#45;&gt;31</title>
<path fill="none" stroke="black" d="M968.01,-51.74C977.59,-54.39 988.86,-57.5 999.65,-60.47"/>
<polygon fill="black" stroke="black" points="998.61,-63.82 1009.18,-63.1 1000.47,-57.07 998.61,-63.82"/>
</g>
<!-- 29&#45;&gt;32 -->
<g id="edge58" class="edge">
<title>29&#45;&gt;32</title>
<path fill="none" stroke="black" d="M957.41,-29.44C965.36,-21.69 976.04,-13.11 987.57,-9 992.04,-7.4 996.82,-6.78 1001.62,-6.8"/>
<polygon fill="black" stroke="black" points="1000.92,-10.25 1011.21,-7.74 1001.6,-3.28 1000.92,-10.25"/>
</g>
</g>
</svg>
