<?xml version="1.0" encoding="UTF-8" standalone="no"?>
<!DOCTYPE svg PUBLIC "-//W3C//DTD SVG 1.1//EN" "http://www.w3.org/Graphics/SVG/1.1/DTD/svg11.dtd">
<!-- Generated by graphviz version 9.0.0 (20230911.1827)
 -->
<!-- Pages: 1 -->
<svg width="502pt" height="136pt" viewBox="0.00 0.00 602.00 163.63" xmlns="http://www.w3.org/2000/svg" xmlns:xlink="http://www.w3.org/1999/xlink">
<g id="graph0" class="graph" transform="scale(0.833333 0.833333) rotate(0) translate(4 159.63)">
<polygon fill="white" stroke="none" points="-4,4 -4,-159.63 598,-159.63 598,4 -4,4"/>
<!-- 0 -->
<g id="node1" class="node">
<title>0</title>
<ellipse fill="#ffffff" stroke="black" stroke-width="2" cx="27" cy="-67.63" rx="27" ry="18"/>
<text text-anchor="start" x="18.44" y="-64.43" font-family="Times,serif" font-weight="bold" font-size="14.00">N0</text>
</g>
<!-- 1 -->
<g id="node2" class="node">
<title>1</title>
<ellipse fill="#ffffff" stroke="black" cx="117" cy="-67.63" rx="27" ry="18"/>
<text text-anchor="middle" x="117" y="-63.43" font-family="Times,serif" font-size="14.00">N1</text>
</g>
<!-- 0&#45;&gt;1 -->
<g id="edge1" class="edge">
<title>0-&gt;1</title>
<path fill="none" stroke="black" d="M54.4,-67.63C61.89,-67.63 70.18,-67.63 78.2,-67.63"/>
<polygon fill="black" stroke="black" points="78.1,-71.13 88.1,-67.63 78.1,-64.13 78.1,-71.13"/>
</g>
<!-- 2 -->
<g id="node3" class="node">
<title>2</title>
<ellipse fill="#81d4fa" stroke="black" cx="207" cy="-67.63" rx="27" ry="18"/>
<text text-anchor="middle" x="207" y="-63.43" font-family="Times,serif" font-size="14.00">C1</text>
</g>
<!-- 1&#45;&gt;2 -->
<g id="edge2" class="edge">
<title>1-&gt;2</title>
<path fill="none" stroke="black" d="M144.4,-67.63C151.89,-67.63 160.18,-67.63 168.2,-67.63"/>
<polygon fill="black" stroke="black" points="168.1,-71.13 178.1,-67.63 168.1,-64.13 168.1,-71.13"/>
</g>
<!-- 3 -->
<g id="node4" class="node">
<title>3</title>
<ellipse fill="#ffffff" stroke="black" cx="297" cy="-121.63" rx="27" ry="18"/>
<text text-anchor="middle" x="297" y="-117.43" font-family="Times,serif" font-size="14.00">N2</text>
</g>
<!-- 2&#45;&gt;3 -->
<g id="edge3" class="edge">
<title>2-&gt;3</title>
<path fill="none" stroke="black" d="M227.53,-79.61C239.15,-86.74 254.11,-95.92 267.08,-103.88"/>
<polygon fill="black" stroke="black" points="264.88,-106.64 275.23,-108.88 268.54,-100.67 264.88,-106.64"/>
</g>
<!-- 4 -->
<g id="node5" class="node">
<title>4</title>
<ellipse fill="#ffffff" stroke="black" cx="297" cy="-67.63" rx="27" ry="18"/>
<text text-anchor="middle" x="297" y="-63.43" font-family="Times,serif" font-size="14.00">N3</text>
</g>
<!-- 2&#45;&gt;4 -->
<g id="edge4" class="edge">
<title>2-&gt;4</title>
<path fill="none" stroke="black" d="M234.4,-67.63C241.89,-67.63 250.18,-67.63 258.2,-67.63"/>
<polygon fill="black" stroke="black" points="258.1,-71.13 268.1,-67.63 258.1,-64.13 258.1,-71.13"/>
</g>
<!-- 5 -->
<g id="node6" class="node">
<title>5</title>
<ellipse fill="#ffffff" stroke="black" cx="387" cy="-33.63" rx="27" ry="18"/>
<text text-anchor="middle" x="387" y="-29.43" font-family="Times,serif" font-size="14.00">N4</text>
</g>
<!-- 2&#45;&gt;5 -->
<g id="edge5" class="edge">
<title>2-&gt;5</title>
<path fill="none" stroke="black" d="M228.6,-56.48C240.37,-50.67 255.62,-44.08 270,-40.63 295.73,-34.45 325.54,-32.77 348.49,-32.59"/>
<polygon fill="black" stroke="black" points="348.3,-36.09 358.3,-32.62 348.31,-29.09 348.3,-36.09"/>
</g>
<!-- 6 -->
<g id="node7" class="node">
<title>6</title>
<ellipse fill="#ffffff" stroke="black" cx="387" cy="-110.63" rx="27" ry="18"/>
<text text-anchor="middle" x="387" y="-106.43" font-family="Times,serif" font-size="14.00">N5</text>
</g>
<!-- 3&#45;&gt;6 -->
<g id="edge6" class="edge">
<title>3-&gt;6</title>
<path fill="none" stroke="black" d="M323.93,-118.39C331.65,-117.42 340.26,-116.34 348.56,-115.31"/>
<polygon fill="black" stroke="black" points="348.96,-118.78 358.45,-114.07 348.1,-111.84 348.96,-118.78"/>
</g>
<!-- 4&#45;&gt;5 -->
<g id="edge7" class="edge">
<title>4-&gt;5</title>
<path fill="none" stroke="black" d="M320.66,-58.87C330.34,-55.13 341.83,-50.69 352.46,-46.59"/>
<polygon fill="black" stroke="black" points="353.63,-49.88 361.7,-43.02 351.11,-43.36 353.63,-49.88"/>
</g>
<!-- 4&#45;&gt;6 -->
<g id="edge8" class="edge">
<title>4-&gt;6</title>
<path fill="none" stroke="black" d="M319.3,-78.04C329.82,-83.17 342.71,-89.48 354.36,-95.16"/>
<polygon fill="black" stroke="black" points="352.71,-98.25 363.23,-99.5 355.78,-91.96 352.71,-98.25"/>
</g>
<!-- 7 -->
<g id="node8" class="node">
<title>7</title>
<ellipse fill="#ffffff" stroke="black" cx="567" cy="-137.63" rx="27" ry="18"/>
<text text-anchor="middle" x="567" y="-133.43" font-family="Times,serif" font-size="14.00">N7</text>
</g>
<!-- 4&#45;&gt;7 -->
<g id="edge9" class="edge">
<title>4-&gt;7</title>
<path fill="none" stroke="red" d="M309.01,-51.06C319.95,-36.25 338.2,-15.55 360,-6.63 382.21,2.47 391.49,1.69 414,-6.63 446.52,-18.64 520.33,-91.13 551.59,-122.82"/>
</g>
<!-- 8 -->
<g id="node9" class="node">
<title>8</title>
<ellipse fill="#81d4fa" stroke="black" cx="477" cy="-110.63" rx="27" ry="18"/>
<text text-anchor="middle" x="477" y="-106.43" font-family="Times,serif" font-size="14.00">C2</text>
</g>
<!-- 6&#45;&gt;8 -->
<g id="edge10" class="edge">
<title>6-&gt;8</title>
<path fill="none" stroke="black" d="M414.4,-110.63C421.89,-110.63 430.18,-110.63 438.2,-110.63"/>
<polygon fill="black" stroke="black" points="438.1,-114.13 448.1,-110.63 438.1,-107.13 438.1,-114.13"/>
</g>
<!-- 8&#45;&gt;7 -->
<g id="edge12" class="edge">
<title>8-&gt;7</title>
<path fill="none" stroke="black" d="M502.05,-118C510.97,-120.74 521.29,-123.91 530.99,-126.88"/>
<polygon fill="black" stroke="black" points="529.95,-130.23 540.54,-129.81 532,-123.53 529.95,-130.23"/>
</g>
<!-- 9 -->
<g id="node10" class="node">
<title>9</title>
<ellipse fill="#ffffff" stroke="black" cx="567" cy="-83.63" rx="27" ry="18"/>
<text text-anchor="middle" x="567" y="-79.43" font-family="Times,serif" font-size="14.00">N6</text>
</g>
<!-- 8&#45;&gt;9 -->
<g id="edge11" class="edge">
<title>8-&gt;9</title>
<path fill="none" stroke="black" d="M502.05,-103.25C510.97,-100.51 521.29,-97.35 530.99,-94.37"/>
<polygon fill="black" stroke="black" points="532,-97.72 540.54,-91.44 529.95,-91.03 532,-97.72"/>
</g>
</g>
</svg>