<?xml version="1.0" encoding="UTF-8" standalone="no"?>
<!DOCTYPE svg PUBLIC "-//W3C//DTD SVG 1.1//EN" "http://www.w3.org/Graphics/SVG/1.1/DTD/svg11.dtd">
<!-- Generated by graphviz version 10.0.1 (20240210.2158)
 -->
<!-- Pages: 1 -->
<svg width="994pt" height="525pt" viewBox="0.00 0.00 1192.30 630.00" xmlns="http://www.w3.org/2000/svg" xmlns:xlink="http://www.w3.org/1999/xlink">
<g id="graph0" class="graph" transform="scale(0.833333 0.833333) rotate(0) translate(4 626)">
<polygon fill="white" stroke="none" points="-4,4 -4,-626 1188.3,-626 1188.3,4 -4,4"/>
<!-- 0 -->
<g id="node1" class="node">
<title>0</title>
<ellipse fill="#ffffff" stroke="black" stroke-width="2" cx="27" cy="-439" rx="27" ry="18"/>
<text text-anchor="start" x="11.44" y="-435.8" font-family="Times,serif" font-weight="bold" font-size="14.00">GNC</text>
</g>
<!-- 1 -->
<g id="node2" class="node">
<title>1</title>
<polygon fill="#dce775" stroke="black" points="179.06,-538 109.26,-538 109.26,-502 179.06,-502 179.06,-538"/>
<text text-anchor="middle" x="144.16" y="-515.8" font-family="Times,serif" font-size="14.00">mass [min]</text>
</g>
<!-- 0&#45;&gt;1 -->
<g id="edge1" class="edge">
<title>0-&gt;1</title>
<path fill="none" stroke="black" d="M43.24,-453.83C55.52,-465.33 73.56,-481.24 91,-493 93.53,-494.7 96.18,-496.38 98.89,-498.01"/>
<polygon fill="black" stroke="black" points="97.1,-501.02 107.52,-502.93 100.56,-494.93 97.1,-501.02"/>
</g>
<!-- 2 -->
<g id="node3" class="node">
<title>2</title>
<polygon fill="#dce775" stroke="black" points="197.31,-484 91,-484 91,-448 197.31,-448 197.31,-484"/>
<text text-anchor="middle" x="144.16" y="-461.8" font-family="Times,serif" font-size="14.00">failureRate [max]</text>
</g>
<!-- 0&#45;&gt;2 -->
<g id="edge2" class="edge">
<title>0-&gt;2</title>
<path fill="none" stroke="black" d="M52.99,-444.86C60.97,-446.73 70.21,-448.9 79.66,-451.11"/>
<polygon fill="black" stroke="black" points="78.78,-454.5 89.32,-453.38 80.38,-447.69 78.78,-454.5"/>
</g>
<!-- 3 -->
<g id="node4" class="node">
<title>3</title>
<ellipse fill="#ffffff" stroke="black" cx="144.16" cy="-412" rx="30.4" ry="18"/>
<text text-anchor="middle" x="144.16" y="-407.8" font-family="Times,serif" font-size="14.00">Sensor</text>
</g>
<!-- 0&#45;&gt;3 -->
<g id="edge3" class="edge">
<title>0-&gt;3</title>
<path fill="none" stroke="black" d="M52.99,-433.14C68.07,-429.6 87.61,-425.02 104.64,-421.03"/>
<polygon fill="black" stroke="black" points="104.98,-424.55 113.92,-418.86 103.38,-417.73 104.98,-424.55"/>
</g>
<!-- 4 -->
<g id="node5" class="node">
<title>4</title>
<ellipse fill="#ffffff" stroke="black" cx="243.1" cy="-354" rx="27.79" ry="18"/>
<text text-anchor="middle" x="243.1" y="-349.8" font-family="Times,serif" font-size="14.00">Comp</text>
</g>
<!-- 0&#45;&gt;4 -->
<g id="edge4" class="edge">
<title>0-&gt;4</title>
<path fill="none" stroke="black" d="M41.48,-423.78C53.3,-411.41 71.59,-394.51 91,-385 126.83,-367.45 172.12,-359.83 203.74,-356.52"/>
<polygon fill="black" stroke="black" points="204,-360.01 213.63,-355.6 203.35,-353.04 204,-360.01"/>
</g>
<!-- 5 -->
<g id="node6" class="node">
<title>5</title>
<ellipse fill="#81d4fa" stroke="black" cx="315.9" cy="-424" rx="27" ry="18"/>
<text text-anchor="middle" x="315.9" y="-419.8" font-family="Times,serif" font-size="14.00">S</text>
</g>
<!-- 3&#45;&gt;5 -->
<g id="edge5" class="edge">
<title>3-&gt;5</title>
<path fill="none" stroke="black" d="M174.72,-414.09C203.27,-416.11 246.62,-419.17 277.54,-421.36"/>
<polygon fill="black" stroke="black" points="277,-424.83 287.22,-422.04 277.49,-417.85 277,-424.83"/>
</g>
<!-- 6 -->
<g id="node7" class="node">
<title>6</title>
<ellipse fill="#81d4fa" stroke="black" cx="506.5" cy="-245" rx="27" ry="18"/>
<text text-anchor="middle" x="506.5" y="-240.8" font-family="Times,serif" font-size="14.00">C</text>
</g>
<!-- 4&#45;&gt;6 -->
<g id="edge6" class="edge">
<title>4-&gt;6</title>
<path fill="none" stroke="black" d="M266.84,-344.52C313.21,-325.18 418.82,-281.14 472.65,-258.7"/>
<polygon fill="black" stroke="black" points="473.72,-262.04 481.6,-254.97 471.02,-255.58 473.72,-262.04"/>
</g>
<!-- 7 -->
<g id="node8" class="node">
<title>7</title>
<ellipse fill="#ffffff" stroke="black" cx="656.23" cy="-406" rx="29.87" ry="18"/>
<text text-anchor="middle" x="656.23" y="-401.8" font-family="Times,serif" font-size="14.00">Inst[0]</text>
</g>
<!-- 5&#45;&gt;7 -->
<g id="edge7" class="edge">
<title>5-&gt;7</title>
<path fill="none" stroke="black" d="M343.24,-422.28C387.05,-419.46 477.64,-413.78 554.37,-410 574.18,-409.02 596.2,-408.13 614.59,-407.43"/>
<polygon fill="black" stroke="black" points="614.72,-410.93 624.58,-407.06 614.46,-403.94 614.72,-410.93"/>
</g>
<!-- 8 -->
<g id="node9" class="node">
<title>8</title>
<ellipse fill="#ffffff" stroke="black" cx="506.5" cy="-487" rx="29.87" ry="18"/>
<text text-anchor="middle" x="506.5" y="-482.8" font-family="Times,serif" font-size="14.00">Inst[1]</text>
</g>
<!-- 5&#45;&gt;8 -->
<g id="edge8" class="edge">
<title>5-&gt;8</title>
<path fill="none" stroke="black" d="M327,-440.68C337.81,-456.74 356.59,-480.03 379.9,-490 407.55,-501.83 441.85,-500.05 467.61,-495.88"/>
<polygon fill="black" stroke="black" points="468.1,-499.35 477.31,-494.11 466.84,-492.47 468.1,-499.35"/>
</g>
<!-- 9 -->
<g id="node10" class="node">
<title>9</title>
<ellipse fill="#ffffff" stroke="black" cx="409.76" cy="-463" rx="29.87" ry="18"/>
<text text-anchor="middle" x="409.76" y="-458.8" font-family="Times,serif" font-size="14.00">Inst[2]</text>
</g>
<!-- 5&#45;&gt;9 -->
<g id="edge9" class="edge">
<title>5-&gt;9</title>
<path fill="none" stroke="black" d="M339.13,-433.44C349.7,-437.93 362.58,-443.39 374.37,-448.4"/>
<polygon fill="black" stroke="black" points="372.83,-451.55 383.4,-452.23 375.57,-445.11 372.83,-451.55"/>
</g>
<!-- 23 -->
<g id="node24" class="node">
<title>23</title>
<ellipse fill="#ffffff" stroke="black" cx="928.7" cy="-275" rx="29.87" ry="18"/>
<text text-anchor="middle" x="928.7" y="-270.8" font-family="Times,serif" font-size="14.00">Inst[0]</text>
</g>
<!-- 6&#45;&gt;23 -->
<g id="edge10" class="edge">
<title>6-&gt;23</title>
<path fill="none" stroke="black" d="M533.78,-246.88C605,-251.96 802.02,-266.03 887.39,-272.12"/>
<polygon fill="black" stroke="black" points="886.94,-275.6 897.16,-272.82 887.44,-268.62 886.94,-275.6"/>
</g>
<!-- 24 -->
<g id="node25" class="node">
<title>24</title>
<ellipse fill="#ffffff" stroke="black" cx="805.97" cy="-179" rx="29.87" ry="18"/>
<text text-anchor="middle" x="805.97" y="-174.8" font-family="Times,serif" font-size="14.00">Inst[1]</text>
</g>
<!-- 6&#45;&gt;24 -->
<g id="edge11" class="edge">
<title>6-&gt;24</title>
<path fill="none" stroke="black" d="M524.73,-231.36C546.78,-214.91 586.85,-188.33 626.37,-179 673.07,-167.98 728.57,-170.28 765.17,-173.83"/>
<polygon fill="black" stroke="black" points="764.54,-177.28 774.85,-174.85 765.27,-170.32 764.54,-177.28"/>
</g>
<!-- 25 -->
<g id="node26" class="node">
<title>25</title>
<ellipse fill="#ffffff" stroke="black" cx="656.23" cy="-206" rx="29.87" ry="18"/>
<text text-anchor="middle" x="656.23" y="-201.8" font-family="Times,serif" font-size="14.00">Inst[2]</text>
</g>
<!-- 6&#45;&gt;25 -->
<g id="edge12" class="edge">
<title>6-&gt;25</title>
<path fill="none" stroke="black" d="M532.23,-238.47C555.51,-232.32 590.73,-223.03 617.52,-215.96"/>
<polygon fill="black" stroke="black" points="618.19,-219.4 626.96,-213.46 616.4,-212.63 618.19,-219.4"/>
</g>
<!-- 10 -->
<g id="node11" class="node">
<title>10</title>
<ellipse fill="#81d4fa" stroke="black" cx="805.97" cy="-458" rx="27" ry="18"/>
<text text-anchor="middle" x="805.97" y="-453.8" font-family="Times,serif" font-size="14.00">ST0</text>
</g>
<!-- 7&#45;&gt;10 -->
<g id="edge13" class="edge">
<title>7-&gt;10</title>
<path fill="none" stroke="black" d="M684.14,-412.82C704.67,-418.31 733.52,-426.63 758.1,-436 763.19,-437.94 768.49,-440.19 773.62,-442.5"/>
<polygon fill="black" stroke="black" points="771.88,-445.55 782.42,-446.6 774.84,-439.2 771.88,-445.55"/>
</g>
<!-- 11 -->
<g id="node12" class="node">
<title>11</title>
<polygon fill="#ffffff" stroke="black" points="832.97,-351 819.47,-369 792.47,-369 778.97,-351 792.47,-333 819.47,-333 832.97,-351"/>
<text text-anchor="middle" x="805.97" y="-346.8" font-family="Times,serif" font-size="14.00">SC0</text>
</g>
<!-- 7&#45;&gt;11 -->
<g id="edge14" class="edge">
<title>7-&gt;11</title>
<path fill="none" stroke="black" d="M682.3,-396.67C707.62,-387.24 746.8,-372.66 774.04,-362.52"/>
<polygon fill="black" stroke="black" points="774.98,-365.9 783.13,-359.13 772.54,-359.34 774.98,-365.9"/>
</g>
<!-- 8&#45;&gt;7 -->
<g id="edge17" class="edge">
<title>8-&gt;7</title>
<path fill="none" stroke="black" d="M533.99,-479.65C555.07,-473.14 584.83,-462.42 608.37,-448 616.94,-442.75 625.4,-435.85 632.73,-429.16"/>
<polygon fill="black" stroke="black" points="634.82,-432 639.65,-422.56 629.99,-426.93 634.82,-432"/>
</g>
<!-- 12 -->
<g id="node13" class="node">
<title>12</title>
<ellipse fill="#81d4fa" stroke="black" cx="805.97" cy="-530" rx="27" ry="18"/>
<text text-anchor="middle" x="805.97" y="-525.8" font-family="Times,serif" font-size="14.00">ST1</text>
</g>
<!-- 8&#45;&gt;12 -->
<g id="edge15" class="edge">
<title>8-&gt;12</title>
<path fill="none" stroke="black" d="M536.02,-491.12C590.14,-498.95 707.7,-515.94 767.87,-524.64"/>
<polygon fill="black" stroke="black" points="767.2,-528.08 777.6,-526.04 768.2,-521.15 767.2,-528.08"/>
</g>
<!-- 13 -->
<g id="node14" class="node">
<title>13</title>
<polygon fill="#ffffff" stroke="black" points="758.1,-463 744.6,-481 717.6,-481 704.1,-463 717.6,-445 744.6,-445 758.1,-463"/>
<text text-anchor="middle" x="731.1" y="-458.8" font-family="Times,serif" font-size="14.00">SC1</text>
</g>
<!-- 8&#45;&gt;13 -->
<g id="edge16" class="edge">
<title>8-&gt;13</title>
<path fill="none" stroke="black" d="M536.14,-483.91C576.59,-479.55 650.39,-471.59 694.37,-466.85"/>
<polygon fill="black" stroke="black" points="694.59,-470.35 704.16,-465.8 693.84,-463.39 694.59,-470.35"/>
</g>
<!-- 9&#45;&gt;8 -->
<g id="edge20" class="edge">
<title>9-&gt;8</title>
<path fill="none" stroke="black" d="M437.91,-469.88C447.13,-472.21 457.6,-474.87 467.5,-477.37"/>
<polygon fill="black" stroke="black" points="466.33,-480.69 476.88,-479.75 468.05,-473.9 466.33,-480.69"/>
</g>
<!-- 14 -->
<g id="node15" class="node">
<title>14</title>
<ellipse fill="#81d4fa" stroke="black" cx="805.97" cy="-604" rx="27" ry="18"/>
<text text-anchor="middle" x="805.97" y="-599.8" font-family="Times,serif" font-size="14.00">ST2</text>
</g>
<!-- 9&#45;&gt;14 -->
<g id="edge18" class="edge">
<title>9-&gt;14</title>
<path fill="none" stroke="black" d="M426.59,-478.17C439.23,-489.51 457.87,-504.63 476.63,-514 575.49,-563.37 705.06,-588.63 767.77,-598.67"/>
<polygon fill="black" stroke="black" points="767.12,-602.11 777.54,-600.19 768.2,-595.19 767.12,-602.11"/>
</g>
<!-- 15 -->
<g id="node16" class="node">
<title>15</title>
<polygon fill="#ffffff" stroke="black" points="608.37,-429 594.87,-447 567.87,-447 554.37,-429 567.87,-411 594.87,-411 608.37,-429"/>
<text text-anchor="middle" x="581.37" y="-424.8" font-family="Times,serif" font-size="14.00">SC2</text>
</g>
<!-- 9&#45;&gt;15 -->
<g id="edge19" class="edge">
<title>9-&gt;15</title>
<path fill="none" stroke="black" d="M438.39,-457.46C467.9,-451.55 514.7,-442.16 546.43,-435.8"/>
<polygon fill="black" stroke="black" points="546.78,-439.3 555.9,-433.91 545.4,-432.44 546.78,-439.3"/>
</g>
<!-- 10&#45;&gt;12 -->
<g id="edge24" class="edge">
<title>10-&gt;12</title>
<path fill="none" stroke="#9c27b0" stroke-width="3" stroke-dasharray="1,5" d="M805.97,-476.17C805.97,-487 805.97,-500.71 805.97,-511.59"/>
<text text-anchor="middle" x="794.57" y="-489.8" font-family="Times,serif" font-size="14.00">≥</text>
</g>
<!-- 10&#45;&gt;14 -->
<g id="edge25" class="edge">
<title>10-&gt;14</title>
<path fill="none" stroke="#9c27b0" stroke-width="3" stroke-dasharray="1,5" d="M780.45,-464.29C765.35,-469.47 747.45,-478.49 738.33,-493.6 734.47,-499.99 736.03,-503.3 738.33,-510.4 748.51,-541.87 773.67,-571.66 790.27,-588.86"/>
<text text-anchor="middle" x="731.1" y="-497.8" font-family="Times,serif" font-size="14.00">≥</text>
</g>
<!-- 16 -->
<g id="node17" class="node">
<title>16</title>
<ellipse fill="#ffffff" stroke="black" cx="928.7" cy="-507" rx="35.87" ry="18"/>
<text text-anchor="middle" x="928.7" y="-502.8" font-family="Times,serif" font-size="14.00">Type: A</text>
</g>
<!-- 10&#45;&gt;16 -->
<g id="edge21" class="edge">
<title>10-&gt;16</title>
<path fill="none" stroke="black" d="M829.68,-467.22C846.51,-474.05 869.84,-483.52 889.52,-491.5"/>
<polygon fill="black" stroke="black" points="888.02,-494.67 898.61,-495.19 890.66,-488.19 888.02,-494.67"/>
</g>
<!-- 17 -->
<g id="node18" class="node">
<title>17</title>
<ellipse fill="#ffffff" stroke="black" cx="928.7" cy="-453" rx="35.35" ry="18"/>
<text text-anchor="middle" x="928.7" y="-448.8" font-family="Times,serif" font-size="14.00">Type: B</text>
</g>
<!-- 10&#45;&gt;17 -->
<g id="edge22" class="edge">
<title>10-&gt;17</title>
<path fill="none" stroke="black" d="M830.03,-449.66C837.52,-447.35 845.94,-445.15 853.84,-444 863.87,-442.53 874.69,-442.81 884.87,-443.9"/>
<polygon fill="black" stroke="black" points="884.15,-447.34 894.53,-445.23 885.09,-440.4 884.15,-447.34"/>
</g>
<!-- 18 -->
<g id="node19" class="node">
<title>18</title>
<ellipse fill="#ffffff" stroke="black" cx="928.7" cy="-580" rx="35.35" ry="18"/>
<text text-anchor="middle" x="928.7" y="-575.8" font-family="Times,serif" font-size="14.00">Type: C</text>
</g>
<!-- 10&#45;&gt;18 -->
<g id="edge23" class="edge">
<title>10-&gt;18</title>
<path fill="none" stroke="black" d="M821.77,-472.96C842.16,-493.56 879.13,-530.92 903.56,-555.6"/>
<polygon fill="black" stroke="black" points="901.04,-558.03 910.56,-562.68 906.01,-553.11 901.04,-558.03"/>
</g>
<!-- 19 -->
<g id="node20" class="node">
<title>19</title>
<polygon fill="#81d4fa" stroke="black" points="957.78,-337 943.24,-355 914.16,-355 899.63,-337 914.16,-319 943.24,-319 957.78,-337"/>
<text text-anchor="middle" x="928.7" y="-332.8" font-family="Times,serif" font-size="14.00">Conn</text>
</g>
<!-- 11&#45;&gt;19 -->
<g id="edge26" class="edge">
<title>11-&gt;19</title>
<path fill="none" stroke="black" stroke-dasharray="5,2" d="M831.4,-348.17C848.29,-346.21 871.08,-343.57 890.25,-341.34"/>
<polygon fill="black" stroke="black" points="890.6,-344.83 900.13,-340.2 889.8,-337.87 890.6,-344.83"/>
<text text-anchor="middle" x="864.34" y="-350.2" font-family="Times,serif" font-size="14.00">1..*</text>
</g>
<!-- 12&#45;&gt;14 -->
<g id="edge30" class="edge">
<title>12-&gt;14</title>
<path fill="none" stroke="#9c27b0" stroke-width="3" stroke-dasharray="1,5" d="M805.97,-548.29C805.97,-559.68 805.97,-574.27 805.97,-585.66"/>
<text text-anchor="middle" x="794.57" y="-562.8" font-family="Times,serif" font-size="14.00">≥</text>
</g>
<!-- 12&#45;&gt;16 -->
<g id="edge27" class="edge">
<title>12-&gt;16</title>
<path fill="none" stroke="black" d="M832.28,-525.18C847.14,-522.35 866.34,-518.69 883.62,-515.4"/>
<polygon fill="black" stroke="black" points="883.97,-518.89 893.14,-513.58 882.66,-512.02 883.97,-518.89"/>
</g>
<!-- 12&#45;&gt;17 -->
<g id="edge28" class="edge">
<title>12-&gt;17</title>
<path fill="none" stroke="black" d="M826.37,-517.63C845.21,-505.61 874.14,-487.16 896.27,-473.05"/>
<polygon fill="black" stroke="black" points="898.08,-476.05 904.63,-467.72 894.31,-470.14 898.08,-476.05"/>
</g>
<!-- 12&#45;&gt;18 -->
<g id="edge29" class="edge">
<title>12-&gt;18</title>
<path fill="none" stroke="black" d="M822.24,-544.7C830.87,-552.19 842.23,-560.8 853.84,-566 862.74,-569.99 872.74,-572.84 882.44,-574.88"/>
<polygon fill="black" stroke="black" points="881.65,-578.3 892.12,-576.65 882.91,-571.41 881.65,-578.3"/>
</g>
<!-- 13&#45;&gt;19 -->
<g id="edge31" class="edge">
<title>13-&gt;19</title>
<path fill="none" stroke="black" stroke-dasharray="5,2" d="M745.33,-445.15C753.4,-435.14 764.4,-422.94 776.1,-414.2 815.07,-385.09 831.72,-389.51 874.84,-367 882.56,-362.97 890.79,-358.42 898.4,-354.11"/>
<polygon fill="black" stroke="black" points="900.05,-357.2 906.99,-349.2 896.57,-351.13 900.05,-357.2"/>
<text text-anchor="middle" x="805.97" y="-419.2" font-family="Times,serif" font-size="14.00">1..*</text>
</g>
<!-- 14&#45;&gt;16 -->
<g id="edge32" class="edge">
<title>14-&gt;16</title>
<path fill="none" stroke="black" d="M824.01,-590.31C843.75,-574.45 876.55,-548.09 899.98,-529.27"/>
<polygon fill="black" stroke="black" points="901.98,-532.16 907.58,-523.17 897.59,-526.7 901.98,-532.16"/>
</g>
<!-- 14&#45;&gt;17 -->
<g id="edge33" class="edge">
<title>14-&gt;17</title>
<path fill="none" stroke="black" d="M818.36,-587.55C841.7,-553.84 892.77,-480.07 892.84,-480 894.55,-478.19 896.39,-476.41 898.29,-474.68"/>
<polygon fill="black" stroke="black" points="900.34,-477.53 905.74,-468.41 895.84,-472.17 900.34,-477.53"/>
</g>
<!-- 14&#45;&gt;18 -->
<g id="edge34" class="edge">
<title>14-&gt;18</title>
<path fill="none" stroke="black" d="M829.61,-613.29C842.97,-617.46 860.09,-620.55 874.84,-616 884.19,-613.12 893.37,-607.95 901.39,-602.42"/>
<polygon fill="black" stroke="black" points="903.38,-605.29 909.31,-596.51 899.2,-599.68 903.38,-605.29"/>
</g>
<!-- 15&#45;&gt;19 -->
<g id="edge35" class="edge">
<title>15-&gt;19</title>
<path fill="none" stroke="black" stroke-dasharray="5,2" d="M594.92,-410.87C602.92,-400.41 614.07,-387.65 626.37,-379 684.35,-338.2 706.13,-335.44 776.1,-324 815.75,-317.52 861.79,-323.32 892.64,-329.11"/>
<polygon fill="black" stroke="black" points="891.69,-332.49 902.18,-331 893.06,-325.62 891.69,-332.49"/>
<text text-anchor="middle" x="731.1" y="-342.2" font-family="Times,serif" font-size="14.00">1..*</text>
</g>
<!-- 20 -->
<g id="node21" class="node">
<title>20</title>
<polygon fill="#ffffff" stroke="black" points="1075.57,-358 1062.07,-376 1035.07,-376 1021.57,-358 1035.07,-340 1062.07,-340 1075.57,-358"/>
<text text-anchor="middle" x="1048.57" y="-353.8" font-family="Times,serif" font-size="14.00">CC0</text>
</g>
<!-- 19&#45;&gt;20 -->
<g id="edge36" class="edge">
<title>19-&gt;20</title>
<path fill="none" stroke="black" stroke-dasharray="5,2" d="M954.7,-341.45C971.63,-344.47 994.23,-348.5 1012.9,-351.82"/>
<polygon fill="black" stroke="black" points="1012.26,-355.26 1022.72,-353.57 1013.49,-348.37 1012.26,-355.26"/>
<text text-anchor="middle" x="993.07" y="-354.2" font-family="Times,serif" font-size="14.00">1..*</text>
</g>
<!-- 21 -->
<g id="node22" class="node">
<title>21</title>
<polygon fill="#ffffff" stroke="black" points="1075.57,-155 1062.07,-173 1035.07,-173 1021.57,-155 1035.07,-137 1062.07,-137 1075.57,-155"/>
<text text-anchor="middle" x="1048.57" y="-150.8" font-family="Times,serif" font-size="14.00">CC1</text>
</g>
<!-- 19&#45;&gt;21 -->
<g id="edge37" class="edge">
<title>19-&gt;21</title>
<path fill="none" stroke="black" stroke-dasharray="5,2" d="M946.55,-322.35C952.72,-316.44 959.43,-309.29 964.57,-302 998.56,-253.72 987.99,-230.56 1021.57,-182 1022.52,-180.63 1023.54,-179.26 1024.6,-177.91"/>
<polygon fill="black" stroke="black" points="1027.12,-180.35 1031.07,-170.52 1021.85,-175.74 1027.12,-180.35"/>
<text text-anchor="middle" x="993.07" y="-273.2" font-family="Times,serif" font-size="14.00">1..*</text>
</g>
<!-- 22 -->
<g id="node23" class="node">
<title>22</title>
<polygon fill="#ffffff" stroke="black" points="1075.57,-290 1062.07,-308 1035.07,-308 1021.57,-290 1035.07,-272 1062.07,-272 1075.57,-290"/>
<text text-anchor="middle" x="1048.57" y="-285.8" font-family="Times,serif" font-size="14.00">CC2</text>
</g>
<!-- 19&#45;&gt;22 -->
<g id="edge38" class="edge">
<title>19-&gt;22</title>
<path fill="none" stroke="black" stroke-dasharray="5,2" d="M951.32,-328.38C969.69,-321.06 996.26,-310.46 1016.84,-302.25"/>
<polygon fill="black" stroke="black" points="1017.87,-305.61 1025.86,-298.66 1015.28,-299.11 1017.87,-305.61"/>
<text text-anchor="middle" x="993.07" y="-319.2" font-family="Times,serif" font-size="14.00">1..*</text>
</g>
<!-- 23&#45;&gt;20 -->
<g id="edge40" class="edge">
<title>23-&gt;20</title>
<path fill="none" stroke="black" d="M955.43,-283.38C970.34,-288.96 988.98,-297.26 1003.57,-308 1012.36,-314.48 1020.66,-322.98 1027.62,-331.13"/>
<polygon fill="black" stroke="black" points="1024.9,-333.33 1033.93,-338.89 1030.34,-328.92 1024.9,-333.33"/>
</g>
<!-- 26 -->
<g id="node27" class="node">
<title>26</title>
<ellipse fill="#81d4fa" stroke="black" cx="1048.57" cy="-209" rx="27" ry="18"/>
<text text-anchor="middle" x="1048.57" y="-204.8" font-family="Times,serif" font-size="14.00">CT0</text>
</g>
<!-- 23&#45;&gt;26 -->
<g id="edge39" class="edge">
<title>23-&gt;26</title>
<path fill="none" stroke="black" d="M948.88,-261.37C958.74,-254.6 971.07,-246.5 982.57,-240 992.83,-234.2 1004.34,-228.46 1014.8,-223.54"/>
<polygon fill="black" stroke="black" points="1016.23,-226.73 1023.84,-219.36 1013.29,-220.38 1016.23,-226.73"/>
</g>
<!-- 24&#45;&gt;21 -->
<g id="edge42" class="edge">
<title>24-&gt;21</title>
<path fill="none" stroke="black" d="M836.1,-178.31C874.61,-177.08 944.5,-173.76 1003.57,-165 1007.02,-164.49 1010.61,-163.85 1014.17,-163.15"/>
<polygon fill="black" stroke="black" points="1014.79,-166.6 1023.83,-161.07 1013.32,-159.75 1014.79,-166.6"/>
</g>
<!-- 24&#45;&gt;23 -->
<g id="edge43" class="edge">
<title>24-&gt;23</title>
<path fill="none" stroke="black" d="M825.04,-193.37C845.16,-209.37 877.88,-235.38 900.96,-253.74"/>
<polygon fill="black" stroke="black" points="898.71,-256.42 908.71,-259.9 903.06,-250.94 898.71,-256.42"/>
</g>
<!-- 27 -->
<g id="node28" class="node">
<title>27</title>
<ellipse fill="#81d4fa" stroke="black" cx="1048.57" cy="-90" rx="27" ry="18"/>
<text text-anchor="middle" x="1048.57" y="-85.8" font-family="Times,serif" font-size="14.00">CT1</text>
</g>
<!-- 24&#45;&gt;27 -->
<g id="edge41" class="edge">
<title>24-&gt;27</title>
<path fill="none" stroke="black" d="M831.81,-169.81C875.14,-153.78 964.58,-120.7 1013.6,-102.56"/>
<polygon fill="black" stroke="black" points="1014.7,-105.89 1022.86,-99.14 1012.27,-99.33 1014.7,-105.89"/>
</g>
<!-- 25&#45;&gt;22 -->
<g id="edge45" class="edge">
<title>25-&gt;22</title>
<path fill="none" stroke="black" d="M686.23,-207.94C764.38,-213.31 975.43,-228.97 1003.57,-243 1013.02,-247.71 1021.48,-255.34 1028.41,-263.1"/>
<polygon fill="black" stroke="black" points="1025.52,-265.1 1034.57,-270.59 1030.92,-260.65 1025.52,-265.1"/>
</g>
<!-- 25&#45;&gt;24 -->
<g id="edge46" class="edge">
<title>25-&gt;24</title>
<path fill="none" stroke="black" d="M685.37,-200.86C708.17,-196.69 740.54,-190.77 765.86,-186.15"/>
<polygon fill="black" stroke="black" points="766.24,-189.64 775.45,-184.4 764.98,-182.75 766.24,-189.64"/>
</g>
<!-- 28 -->
<g id="node29" class="node">
<title>28</title>
<ellipse fill="#81d4fa" stroke="black" cx="1048.57" cy="-18" rx="27" ry="18"/>
<text text-anchor="middle" x="1048.57" y="-13.8" font-family="Times,serif" font-size="14.00">CT2</text>
</g>
<!-- 25&#45;&gt;28 -->
<g id="edge44" class="edge">
<title>25-&gt;28</title>
<path fill="none" stroke="black" d="M680.19,-194.94C746.84,-162.84 940.39,-69.62 1016.4,-33.01"/>
<polygon fill="black" stroke="black" points="1017.47,-36.38 1024.96,-28.89 1014.43,-30.07 1017.47,-36.38"/>
</g>
<!-- 26&#45;&gt;27 -->
<g id="edge50" class="edge">
<title>26-&gt;27</title>
<path fill="none" stroke="#9c27b0" stroke-width="3" stroke-dasharray="1,5" d="M1031.96,-194.55C1019.27,-182.22 1002.99,-163.21 997.07,-142.4 995.03,-135.22 993.6,-132.21 997.07,-125.6 1003.13,-114.05 1014.82,-105.5 1025.54,-99.69"/>
<text text-anchor="middle" x="993.07" y="-129.8" font-family="Times,serif" font-size="14.00">≥</text>
</g>
<!-- 26&#45;&gt;28 -->
<g id="edge51" class="edge">
<title>26-&gt;28</title>
<path fill="none" stroke="#9c27b0" stroke-width="3" stroke-dasharray="1,5" d="M1027.8,-197.21C1016.44,-189.49 1003.41,-178.28 997.07,-164.4 976.02,-118.33 1013.66,-60.97 1035.14,-33.75"/>
<text text-anchor="middle" x="993.07" y="-151.8" font-family="Times,serif" font-size="14.00">≥</text>
</g>
<!-- 29 -->
<g id="node30" class="node">
<title>29</title>
<ellipse fill="#ffffff" stroke="black" cx="1148.43" cy="-38" rx="35.87" ry="18"/>
<text text-anchor="middle" x="1148.43" y="-33.8" font-family="Times,serif" font-size="14.00">Type: A</text>
</g>
<!-- 26&#45;&gt;29 -->
<g id="edge47" class="edge">
<title>26-&gt;29</title>
<path fill="none" stroke="black" d="M1065.77,-194.61C1069.37,-190.79 1072.91,-186.47 1075.57,-182 1103.44,-135.12 1081.37,-109.73 1112.57,-65 1113.85,-63.16 1115.29,-61.39 1116.85,-59.7"/>
<polygon fill="black" stroke="black" points="1119.19,-62.3 1124.15,-52.93 1114.44,-57.16 1119.19,-62.3"/>
</g>
<!-- 30 -->
<g id="node31" class="node">
<title>30</title>
<ellipse fill="#ffffff" stroke="black" cx="1148.43" cy="-92" rx="35.35" ry="18"/>
<text text-anchor="middle" x="1148.43" y="-87.8" font-family="Times,serif" font-size="14.00">Type: B</text>
</g>
<!-- 26&#45;&gt;30 -->
<g id="edge48" class="edge">
<title>26-&gt;30</title>
<path fill="none" stroke="black" d="M1064.4,-194.1C1068.12,-190.22 1072.05,-186.01 1075.57,-182 1093.99,-161.01 1113.7,-136.14 1127.81,-117.86"/>
<polygon fill="black" stroke="black" points="1130.4,-120.23 1133.72,-110.17 1124.85,-115.97 1130.4,-120.23"/>
</g>
<!-- 31 -->
<g id="node32" class="node">
<title>31</title>
<ellipse fill="#ffffff" stroke="black" cx="1148.43" cy="-165" rx="35.35" ry="18"/>
<text text-anchor="middle" x="1148.43" y="-160.8" font-family="Times,serif" font-size="14.00">Type: C</text>
</g>
<!-- 26&#45;&gt;31 -->
<g id="edge49" class="edge">
<title>26-&gt;31</title>
<path fill="none" stroke="black" d="M1075.32,-206.34C1081.76,-205.16 1088.54,-203.46 1094.57,-201 1103.25,-197.46 1111.95,-192.35 1119.71,-187.08"/>
<polygon fill="black" stroke="black" points="1121.66,-189.99 1127.75,-181.31 1117.58,-184.3 1121.66,-189.99"/>
</g>
<!-- 27&#45;&gt;28 -->
<g id="edge55" class="edge">
<title>27-&gt;28</title>
<path fill="none" stroke="#9c27b0" stroke-width="3" stroke-dasharray="1,5" d="M1048.57,-71.59C1048.57,-60.71 1048.57,-47 1048.57,-36.17"/>
<text text-anchor="middle" x="1037.17" y="-49.8" font-family="Times,serif" font-size="14.00">≥</text>
</g>
<!-- 27&#45;&gt;29 -->
<g id="edge52" class="edge">
<title>27-&gt;29</title>
<path fill="none" stroke="black" d="M1070.32,-78.97C1082.69,-72.4 1098.71,-63.89 1112.94,-56.33"/>
<polygon fill="black" stroke="black" points="1114.38,-59.53 1121.57,-51.74 1111.1,-53.35 1114.38,-59.53"/>
</g>
<!-- 27&#45;&gt;30 -->
<g id="edge53" class="edge">
<title>27-&gt;30</title>
<path fill="none" stroke="black" d="M1076.05,-90.54C1083.92,-90.7 1092.79,-90.88 1101.52,-91.06"/>
<polygon fill="black" stroke="black" points="1101.25,-94.56 1111.32,-91.26 1101.39,-87.56 1101.25,-94.56"/>
</g>
<!-- 27&#45;&gt;31 -->
<g id="edge54" class="edge">
<title>27-&gt;31</title>
<path fill="none" stroke="black" d="M1061.01,-106.43C1073.28,-123.97 1091.32,-149.46 1093.57,-151 1096.6,-153.07 1099.92,-154.84 1103.37,-156.34"/>
<polygon fill="black" stroke="black" points="1101.96,-159.56 1112.55,-159.61 1104.31,-152.96 1101.96,-159.56"/>
</g>
<!-- 28&#45;&gt;29 -->
<g id="edge56" class="edge">
<title>28-&gt;29</title>
<path fill="none" stroke="black" d="M1074.77,-23.15C1083.48,-24.93 1093.52,-26.98 1103.3,-28.98"/>
<polygon fill="black" stroke="black" points="1102.58,-32.41 1113.08,-30.98 1103.98,-25.55 1102.58,-32.41"/>
</g>
<!-- 28&#45;&gt;30 -->
<g id="edge57" class="edge">
<title>28-&gt;30</title>
<path fill="none" stroke="black" d="M1067.07,-31.23C1081.45,-42.1 1102.11,-57.73 1118.88,-70.41"/>
<polygon fill="black" stroke="black" points="1116.44,-72.95 1126.53,-76.19 1120.66,-67.37 1116.44,-72.95"/>
</g>
<!-- 28&#45;&gt;31 -->
<g id="edge58" class="edge">
<title>28-&gt;31</title>
<path fill="none" stroke="black" d="M1059.37,-34.74C1071.4,-55.02 1092.64,-90.07 1112.57,-119 1117.15,-125.65 1122.31,-132.68 1127.22,-139.18"/>
<polygon fill="black" stroke="black" points="1124.37,-141.22 1133.22,-147.03 1129.93,-136.96 1124.37,-141.22"/>
</g>
</g>
</svg>