<?xml version="1.0" encoding="UTF-8" standalone="no"?>
<!DOCTYPE svg PUBLIC "-//W3C//DTD SVG 1.1//EN"
 "http://www.w3.org/Graphics/SVG/1.1/DTD/svg11.dtd">
<!-- Generated by graphviz version 9.0.0 (20230911.1827)
 -->
<!-- Pages: 1 -->
<svg width="313pt" height="237pt"
 viewBox="0.00 0.00 375.00 284.83" xmlns="http://www.w3.org/2000/svg" xmlns:xlink="http://www.w3.org/1999/xlink">
<g id="graph0" class="graph" transform="scale(0.833333 0.833333) rotate(0) translate(4 280.83)">
<polygon fill="white" stroke="none" points="-4,4 -4,-280.83 371,-280.83 371,4 -4,4"/>
<!-- 0 -->
<g id="node1" class="node">
<title>0</title>
<polygon fill="#ffffff" stroke="black" points="145,-72 131.5,-90 104.5,-90 91,-72 104.5,-54 131.5,-54 145,-72"/>
<text text-anchor="middle" x="118" y="-67.8" font-family="Times,serif" font-size="14.00">S1</text>
</g>
<!-- 1 -->
<g id="node2" class="node">
<title>1</title>
<polygon fill="#81d4fa" stroke="black" points="256,-126 242.5,-144 215.5,-144 202,-126 215.5,-108 242.5,-108 256,-126"/>
<text text-anchor="middle" x="229" y="-121.8" font-family="Times,serif" font-size="14.00">C</text>
</g>
<!-- 0&#45;&gt;1 -->
<g id="edge1" class="edge">
<title>0&#45;&gt;1</title>
<path fill="none" stroke="black" stroke-dasharray="5,2" d="M138.24,-81.53C154.87,-89.77 179.17,-101.81 198.3,-111.29"/>
<polygon fill="black" stroke="black" points="196.72,-114.41 207.23,-115.71 199.83,-108.14 196.72,-114.41"/>
<text text-anchor="middle" x="173.5" y="-108.2" font-family="Times,serif" font-size="14.00">1</text>
</g>
<!-- 2 -->
<g id="node3" class="node">
<title>2</title>
<polygon fill="#ffffff" stroke="black" points="367,-178 353.5,-196 326.5,-196 313,-178 326.5,-160 353.5,-160 367,-178"/>
<text text-anchor="middle" x="340" y="-173.8" font-family="Times,serif" font-size="14.00">T1</text>
</g>
<!-- 1&#45;&gt;2 -->
<g id="edge2" class="edge">
<title>1&#45;&gt;2</title>
<path fill="none" stroke="black" stroke-dasharray="5,2" d="M249.49,-135.3C266.15,-143.25 290.38,-154.81 309.44,-163.9"/>
<polygon fill="black" stroke="black" points="307.78,-166.99 318.32,-168.13 310.8,-160.67 307.78,-166.99"/>
<text text-anchor="middle" x="284.5" y="-160.2" font-family="Times,serif" font-size="14.00">0..*</text>
</g>
<!-- 3 -->
<g id="node4" class="node">
<title>3</title>
<polygon fill="#ffffff" stroke="black" points="367,-107 353.5,-125 326.5,-125 313,-107 326.5,-89 353.5,-89 367,-107"/>
<text text-anchor="middle" x="340" y="-102.8" font-family="Times,serif" font-size="14.00">T1</text>
</g>
<!-- 1&#45;&gt;3 -->
<g id="edge3" class="edge">
<title>1&#45;&gt;3</title>
<path fill="none" stroke="black" stroke-dasharray="5,2" d="M253.38,-121.92C268.33,-119.32 287.96,-115.9 304.66,-112.99"/>
<polygon fill="black" stroke="black" points="304.91,-116.49 314.16,-111.33 303.71,-109.6 304.91,-116.49"/>
<text text-anchor="middle" x="284.5" y="-123.2" font-family="Times,serif" font-size="14.00">1..*</text>
</g>
<!-- 4 -->
<g id="node5" class="node">
<title>4</title>
<polygon fill="#ffffff" stroke="black" points="367,-18 353.5,-36 326.5,-36 313,-18 326.5,0 353.5,0 367,-18"/>
<text text-anchor="middle" x="340" y="-13.8" font-family="Times,serif" font-size="14.00">T1</text>
</g>
<!-- 1&#45;&gt;4 -->
<g id="edge4" class="edge">
<title>1&#45;&gt;4</title>
<path fill="none" stroke="black" stroke-dasharray="5,2" d="M245.16,-110.98C263.54,-92.77 294.71,-61.88 316.05,-40.74"/>
<polygon fill="black" stroke="black" points="318.26,-43.48 322.9,-33.95 313.33,-38.51 318.26,-43.48"/>
<text text-anchor="middle" x="284.5" y="-86.2" font-family="Times,serif" font-size="14.00">0..1</text>
</g>
<!-- 5 -->
<g id="node6" class="node">
<title>5</title>
<polygon fill="#ffffff" stroke="black" points="145,-234 131.5,-252 104.5,-252 91,-234 104.5,-216 131.5,-216 145,-234"/>
<text text-anchor="middle" x="118" y="-229.8" font-family="Times,serif" font-size="14.00">S2</text>
</g>
<!-- 5&#45;&gt;1 -->
<g id="edge5" class="edge">
<title>5&#45;&gt;1</title>
<path fill="none" stroke="black" stroke-dasharray="5,2" d="M135.66,-220.87C149.18,-209.93 168.48,-193.66 184,-178 192.07,-169.86 200.34,-160.43 207.5,-151.85"/>
<polygon fill="black" stroke="black" points="210.17,-154.1 213.81,-144.15 204.76,-149.66 210.17,-154.1"/>
<text text-anchor="middle" x="173.5" y="-201.2" font-family="Times,serif" font-size="14.00">0,1</text>
</g>
<!-- 6 -->
<g id="node7" class="node">
<title>6</title>
<polygon fill="#ffffff" stroke="black" points="145,-180 131.5,-198 104.5,-198 91,-180 104.5,-162 131.5,-162 145,-180"/>
<text text-anchor="middle" x="118" y="-175.8" font-family="Times,serif" font-size="14.00">S3</text>
</g>
<!-- 6&#45;&gt;1 -->
<g id="edge6" class="edge">
<title>6&#45;&gt;1</title>
<path fill="none" stroke="black" stroke-dasharray="5,2" d="M138.24,-170.47C154.87,-162.23 179.17,-150.19 198.3,-140.71"/>
<polygon fill="black" stroke="black" points="199.83,-143.86 207.23,-136.29 196.72,-137.59 199.83,-143.86"/>
<text text-anchor="middle" x="173.5" y="-161.2" font-family="Times,serif" font-size="14.00">0..2</text>
</g>
<!-- 7 -->
<g id="node8" class="node">
<title>7</title>
<polygon fill="#ffffff" stroke="black" points="145,-126 131.5,-144 104.5,-144 91,-126 104.5,-108 131.5,-108 145,-126"/>
<text text-anchor="middle" x="118" y="-121.8" font-family="Times,serif" font-size="14.00">S4</text>
</g>
<!-- 7&#45;&gt;1 -->
<g id="edge7" class="edge">
<title>7&#45;&gt;1</title>
<path fill="none" stroke="black" stroke-dasharray="5,2" d="M145.39,-126C158.81,-126 175.37,-126 190.12,-126"/>
<polygon fill="black" stroke="black" points="189.97,-129.5 199.97,-126 189.97,-122.5 189.97,-129.5"/>
<text text-anchor="middle" x="173.5" y="-130.2" font-family="Times,serif" font-size="14.00">1..3</text>
</g>
<!-- 8 -->
<g id="node9" class="node">
<title>8</title>
<ellipse fill="#ffffff" stroke="black" stroke-width="2" cx="27" cy="-126" rx="27" ry="18"/>
<text text-anchor="start" x="11.84" y="-122.8" font-family="Times,serif" font-weight="bold" font-size="14.00">Start</text>
</g>
<!-- 8&#45;&gt;0 -->
<g id="edge8" class="edge">
<title>8&#45;&gt;0</title>
<path fill="none" stroke="black" d="M47.75,-114.02C59.91,-106.64 75.69,-97.06 89.11,-88.92"/>
<polygon fill="black" stroke="black" points="90.79,-92 97.52,-83.82 87.16,-86.01 90.79,-92"/>
</g>
<!-- 8&#45;&gt;2 -->
<g id="edge12" class="edge">
<title>8&#45;&gt;2</title>
<path fill="none" stroke="black" d="M30.29,-143.99C35.24,-174.32 49.99,-234.88 91,-261 164.81,-308 268.04,-237.2 314.56,-199.32"/>
<polygon fill="black" stroke="black" points="316.73,-202.07 322.18,-192.98 312.25,-196.69 316.73,-202.07"/>
</g>
<!-- 8&#45;&gt;3 -->
<g id="edge13" class="edge">
<title>8&#45;&gt;3</title>
<path fill="none" stroke="black" d="M35.68,-108.53C45.38,-88.92 64.11,-58.15 91,-45 128.18,-26.82 234.94,-29.17 295,-59 304.71,-63.82 313.32,-71.77 320.29,-79.82"/>
<polygon fill="black" stroke="black" points="317.53,-81.97 326.5,-87.61 323,-77.61 317.53,-81.97"/>
</g>
<!-- 8&#45;&gt;4 -->
<g id="edge14" class="edge">
<title>8&#45;&gt;4</title>
<path fill="none" stroke="black" d="M33.64,-108.16C41.98,-85.25 60.07,-46.57 91,-31 160.34,3.91 254.83,-3.86 304.79,-11.54"/>
<polygon fill="black" stroke="black" points="303.98,-14.95 314.41,-13.12 305.11,-8.05 303.98,-14.95"/>
</g>
<!-- 8&#45;&gt;5 -->
<g id="edge9" class="edge">
<title>8&#45;&gt;5</title>
<path fill="none" stroke="black" d="M39.83,-142.23C52.14,-158.87 72.22,-185.32 91,-207 92.07,-208.23 93.17,-209.48 94.3,-210.73"/>
<polygon fill="black" stroke="black" points="91.45,-212.81 100.83,-217.74 96.57,-208.03 91.45,-212.81"/>
</g>
<!-- 8&#45;&gt;6 -->
<g id="edge10" class="edge">
<title>8&#45;&gt;6</title>
<path fill="none" stroke="black" d="M47.75,-137.98C59.91,-145.36 75.69,-154.94 89.11,-163.08"/>
<polygon fill="black" stroke="black" points="87.16,-165.99 97.52,-168.18 90.79,-160 87.16,-165.99"/>
</g>
<!-- 8&#45;&gt;7 -->
<g id="edge11" class="edge">
<title>8&#45;&gt;7</title>
<path fill="none" stroke="black" d="M54.22,-126C62.12,-126 70.94,-126 79.43,-126"/>
<polygon fill="black" stroke="black" points="79.14,-129.5 89.14,-126 79.14,-122.5 79.14,-129.5"/>
</g>
</g>
</svg>
