<?xml version="1.0" encoding="UTF-8" standalone="no"?>
<!DOCTYPE svg PUBLIC "-//W3C//DTD SVG 1.1//EN"
 "http://www.w3.org/Graphics/SVG/1.1/DTD/svg11.dtd">
<!-- Generated by graphviz version 12.1.1 (20240910.0053)
 -->
<!-- Pages: 1 -->
<svg width="982pt" height="525pt"
 viewBox="0.00 0.00 1178.70 630.00" xmlns="http://www.w3.org/2000/svg" xmlns:xlink="http://www.w3.org/1999/xlink">
<g id="graph0" class="graph" transform="scale(0.833333 0.833333) rotate(0) translate(4 626)">
<polygon fill="white" stroke="none" points="-4,4 -4,-626 1174.7,-626 1174.7,4 -4,4"/>
<!-- 0 -->
<g id="node1" class="node">
<title>0</title>
<ellipse fill="#ffffff" stroke="black" stroke-width="2" cx="27" cy="-439" rx="27" ry="18"/>
<text text-anchor="start" x="11.44" y="-435.8" font-family="Times,serif" font-weight="bold" font-size="14.00">GNC</text>
</g>
<!-- 1 -->
<g id="node2" class="node">
<title>1</title>
<polygon fill="#dce775" stroke="black" points="166.62,-538 108.09,-538 108.09,-502 166.62,-502 166.62,-538"/>
<text text-anchor="middle" x="137.36" y="-515.8" font-family="Times,serif" font-size="14.00">mass [↓]</text>
</g>
<!-- 0&#45;&gt;1 -->
<g id="edge1" class="edge">
<title>0&#45;&gt;1</title>
<path fill="none" stroke="black" d="M43.44,-453.55C55.83,-464.89 73.92,-480.73 91,-493 93.43,-494.74 95.97,-496.48 98.57,-498.19"/>
<polygon fill="black" stroke="black" points="96.45,-500.99 106.77,-503.36 100.18,-495.07 96.45,-500.99"/>
</g>
<!-- 2 -->
<g id="node3" class="node">
<title>2</title>
<polygon fill="#dce775" stroke="black" points="183.71,-484 91,-484 91,-448 183.71,-448 183.71,-484"/>
<text text-anchor="middle" x="137.36" y="-461.8" font-family="Times,serif" font-size="14.00">failureRate [↑]</text>
</g>
<!-- 0&#45;&gt;2 -->
<g id="edge2" class="edge">
<title>0&#45;&gt;2</title>
<path fill="none" stroke="black" d="M52.86,-445.19C60.94,-447.21 70.27,-449.53 79.7,-451.88"/>
<polygon fill="black" stroke="black" points="78.73,-455.25 89.28,-454.27 80.42,-448.46 78.73,-455.25"/>
</g>
<!-- 3 -->
<g id="node4" class="node">
<title>3</title>
<ellipse fill="#ffffff" stroke="black" cx="137.36" cy="-412" rx="30.4" ry="18"/>
<text text-anchor="middle" x="137.36" y="-407.8" font-family="Times,serif" font-size="14.00">Sensor</text>
</g>
<!-- 0&#45;&gt;3 -->
<g id="edge3" class="edge">
<title>0&#45;&gt;3</title>
<path fill="none" stroke="black" d="M52.86,-432.81C66.2,-429.48 82.94,-425.31 97.92,-421.58"/>
<polygon fill="black" stroke="black" points="98.62,-425.01 107.48,-419.2 96.93,-418.22 98.62,-425.01"/>
</g>
<!-- 4 -->
<g id="node5" class="node">
<title>4</title>
<ellipse fill="#ffffff" stroke="black" cx="229.5" cy="-354" rx="27.79" ry="18"/>
<text text-anchor="middle" x="229.5" y="-349.8" font-family="Times,serif" font-size="14.00">Comp</text>
</g>
<!-- 0&#45;&gt;4 -->
<g id="edge4" class="edge">
<title>0&#45;&gt;4</title>
<path fill="none" stroke="black" d="M41.53,-423.88C53.38,-411.57 71.69,-394.69 91,-385 122.43,-369.23 161.9,-361.39 190.48,-357.56"/>
<polygon fill="black" stroke="black" points="190.62,-361.06 200.12,-356.37 189.77,-354.12 190.62,-361.06"/>
</g>
<!-- 5 -->
<g id="node6" class="node">
<title>5</title>
<ellipse fill="#81d4fa" stroke="black" cx="302.29" cy="-424" rx="27" ry="18"/>
<text text-anchor="middle" x="302.29" y="-419.8" font-family="Times,serif" font-size="14.00">S</text>
</g>
<!-- 3&#45;&gt;5 -->
<g id="edge5" class="edge">
<title>3&#45;&gt;5</title>
<path fill="none" stroke="black" d="M167.86,-414.17C194.7,-416.15 234.46,-419.08 263.59,-421.22"/>
<polygon fill="black" stroke="black" points="263.23,-424.71 273.46,-421.95 263.74,-417.72 263.23,-424.71"/>
</g>
<!-- 6 -->
<g id="node7" class="node">
<title>6</title>
<ellipse fill="#81d4fa" stroke="black" cx="492.89" cy="-246" rx="27" ry="18"/>
<text text-anchor="middle" x="492.89" y="-241.8" font-family="Times,serif" font-size="14.00">C</text>
</g>
<!-- 4&#45;&gt;6 -->
<g id="edge6" class="edge">
<title>4&#45;&gt;6</title>
<path fill="none" stroke="black" d="M253.7,-344.42C300.34,-325.15 405.58,-281.66 459.19,-259.51"/>
<polygon fill="black" stroke="black" points="460.19,-262.89 468.09,-255.83 457.52,-256.42 460.19,-262.89"/>
</g>
<!-- 7 -->
<g id="node8" class="node">
<title>7</title>
<ellipse fill="#ffffff" stroke="black" cx="642.63" cy="-401" rx="29.87" ry="18"/>
<text text-anchor="middle" x="642.63" y="-396.8" font-family="Times,serif" font-size="14.00">Inst[0]</text>
</g>
<!-- 5&#45;&gt;7 -->
<g id="edge7" class="edge">
<title>5&#45;&gt;7</title>
<path fill="none" stroke="black" d="M329.56,-422.21C388.41,-418.21 531.18,-408.51 601.35,-403.74"/>
<polygon fill="black" stroke="black" points="601.52,-407.24 611.26,-403.06 601.04,-400.25 601.52,-407.24"/>
</g>
<!-- 8 -->
<g id="node9" class="node">
<title>8</title>
<ellipse fill="#ffffff" stroke="black" cx="492.89" cy="-487" rx="29.87" ry="18"/>
<text text-anchor="middle" x="492.89" y="-482.8" font-family="Times,serif" font-size="14.00">Inst[1]</text>
</g>
<!-- 5&#45;&gt;8 -->
<g id="edge8" class="edge">
<title>5&#45;&gt;8</title>
<path fill="none" stroke="black" d="M313.4,-440.68C324.21,-456.74 342.99,-480.03 366.29,-490 393.94,-501.83 428.24,-500.05 454.01,-495.88"/>
<polygon fill="black" stroke="black" points="454.5,-499.35 463.71,-494.11 453.24,-492.47 454.5,-499.35"/>
</g>
<!-- 9 -->
<g id="node10" class="node">
<title>9</title>
<ellipse fill="#ffffff" stroke="black" cx="396.16" cy="-463" rx="29.87" ry="18"/>
<text text-anchor="middle" x="396.16" y="-458.8" font-family="Times,serif" font-size="14.00">Inst[2]</text>
</g>
<!-- 5&#45;&gt;9 -->
<g id="edge9" class="edge">
<title>5&#45;&gt;9</title>
<path fill="none" stroke="black" d="M325.53,-433.44C336.1,-437.93 348.98,-443.39 360.77,-448.4"/>
<polygon fill="black" stroke="black" points="359.23,-451.55 369.8,-452.23 361.96,-445.11 359.23,-451.55"/>
</g>
<!-- 23 -->
<g id="node24" class="node">
<title>23</title>
<ellipse fill="#ffffff" stroke="black" cx="915.1" cy="-275" rx="29.87" ry="18"/>
<text text-anchor="middle" x="915.1" y="-270.8" font-family="Times,serif" font-size="14.00">Inst[0]</text>
</g>
<!-- 6&#45;&gt;23 -->
<g id="edge10" class="edge">
<title>6&#45;&gt;23</title>
<path fill="none" stroke="black" d="M520.18,-247.81C591.4,-252.73 788.42,-266.33 873.79,-272.22"/>
<polygon fill="black" stroke="black" points="873.34,-275.7 883.56,-272.89 873.82,-268.71 873.34,-275.7"/>
</g>
<!-- 24 -->
<g id="node25" class="node">
<title>24</title>
<ellipse fill="#ffffff" stroke="black" cx="792.37" cy="-179" rx="29.87" ry="18"/>
<text text-anchor="middle" x="792.37" y="-174.8" font-family="Times,serif" font-size="14.00">Inst[1]</text>
</g>
<!-- 6&#45;&gt;24 -->
<g id="edge11" class="edge">
<title>6&#45;&gt;24</title>
<path fill="none" stroke="black" d="M511.14,-232.39C533.19,-215.99 573.28,-189.44 612.76,-180 659.43,-168.84 714.94,-170.81 751.55,-174.11"/>
<polygon fill="black" stroke="black" points="750.94,-177.57 761.23,-175.07 751.63,-170.6 750.94,-177.57"/>
</g>
<!-- 25 -->
<g id="node26" class="node">
<title>25</title>
<ellipse fill="#ffffff" stroke="black" cx="642.63" cy="-207" rx="29.87" ry="18"/>
<text text-anchor="middle" x="642.63" y="-202.8" font-family="Times,serif" font-size="14.00">Inst[2]</text>
</g>
<!-- 6&#45;&gt;25 -->
<g id="edge12" class="edge">
<title>6&#45;&gt;25</title>
<path fill="none" stroke="black" d="M518.62,-239.47C541.91,-233.32 577.12,-224.03 603.91,-216.96"/>
<polygon fill="black" stroke="black" points="604.58,-220.4 613.36,-214.46 602.79,-213.63 604.58,-220.4"/>
</g>
<!-- 10 -->
<g id="node11" class="node">
<title>10</title>
<ellipse fill="#81d4fa" stroke="black" cx="792.37" cy="-458" rx="27" ry="18"/>
<text text-anchor="middle" x="792.37" y="-453.8" font-family="Times,serif" font-size="14.00">ST0</text>
</g>
<!-- 7&#45;&gt;10 -->
<g id="edge13" class="edge">
<title>7&#45;&gt;10</title>
<path fill="none" stroke="black" d="M669.05,-409.91C689.53,-417.19 719.01,-427.89 744.5,-438 749.16,-439.85 754.05,-441.86 758.84,-443.87"/>
<polygon fill="black" stroke="black" points="757.09,-446.92 767.66,-447.61 759.82,-440.48 757.09,-446.92"/>
</g>
<!-- 11 -->
<g id="node12" class="node">
<title>11</title>
<polygon fill="#ffffff" stroke="black" points="819.37,-351 805.87,-369 778.87,-369 765.37,-351 778.87,-333 805.87,-333 819.37,-351"/>
<text text-anchor="middle" x="792.37" y="-346.8" font-family="Times,serif" font-size="14.00">SC0</text>
</g>
<!-- 7&#45;&gt;11 -->
<g id="edge14" class="edge">
<title>7&#45;&gt;11</title>
<path fill="none" stroke="black" d="M669.36,-392.29C694.39,-383.82 732.48,-370.93 759.43,-361.81"/>
<polygon fill="black" stroke="black" points="760.44,-365.16 768.79,-358.64 758.2,-358.53 760.44,-365.16"/>
</g>
<!-- 8&#45;&gt;7 -->
<g id="edge17" class="edge">
<title>8&#45;&gt;7</title>
<path fill="none" stroke="black" d="M520.61,-480.01C541.82,-473.7 571.64,-463.08 594.76,-448 604.26,-441.81 613.38,-433.43 621.01,-425.46"/>
<polygon fill="black" stroke="black" points="623.47,-427.96 627.63,-418.22 618.3,-423.24 623.47,-427.96"/>
</g>
<!-- 12 -->
<g id="node13" class="node">
<title>12</title>
<ellipse fill="#81d4fa" stroke="black" cx="792.37" cy="-530" rx="27" ry="18"/>
<text text-anchor="middle" x="792.37" y="-525.8" font-family="Times,serif" font-size="14.00">ST1</text>
</g>
<!-- 8&#45;&gt;12 -->
<g id="edge15" class="edge">
<title>8&#45;&gt;12</title>
<path fill="none" stroke="black" d="M522.14,-491.25C528.28,-492.16 534.74,-493.12 540.76,-494 616.7,-505.12 705.63,-517.82 754.5,-524.77"/>
<polygon fill="black" stroke="black" points="753.85,-528.21 764.25,-526.15 754.84,-521.28 753.85,-528.21"/>
</g>
<!-- 13 -->
<g id="node14" class="node">
<title>13</title>
<polygon fill="#ffffff" stroke="black" points="744.5,-465 731,-483 704,-483 690.5,-465 704,-447 731,-447 744.5,-465"/>
<text text-anchor="middle" x="717.5" y="-460.8" font-family="Times,serif" font-size="14.00">SC1</text>
</g>
<!-- 8&#45;&gt;13 -->
<g id="edge16" class="edge">
<title>8&#45;&gt;13</title>
<path fill="none" stroke="black" d="M522.54,-484.17C562.88,-480.18 636.39,-472.92 680.41,-468.57"/>
<polygon fill="black" stroke="black" points="680.61,-472.06 690.22,-467.6 679.93,-465.1 680.61,-472.06"/>
</g>
<!-- 9&#45;&gt;8 -->
<g id="edge20" class="edge">
<title>9&#45;&gt;8</title>
<path fill="none" stroke="black" d="M424.31,-469.88C433.52,-472.21 444,-474.87 453.9,-477.37"/>
<polygon fill="black" stroke="black" points="452.72,-480.69 463.28,-479.75 454.44,-473.9 452.72,-480.69"/>
</g>
<!-- 14 -->
<g id="node15" class="node">
<title>14</title>
<ellipse fill="#81d4fa" stroke="black" cx="792.37" cy="-604" rx="27" ry="18"/>
<text text-anchor="middle" x="792.37" y="-599.8" font-family="Times,serif" font-size="14.00">ST2</text>
</g>
<!-- 9&#45;&gt;14 -->
<g id="edge18" class="edge">
<title>9&#45;&gt;14</title>
<path fill="none" stroke="black" d="M412.99,-478.17C425.63,-489.51 444.27,-504.63 463.03,-514 561.88,-563.37 691.46,-588.63 754.17,-598.67"/>
<polygon fill="black" stroke="black" points="753.52,-602.11 763.94,-600.19 754.59,-595.19 753.52,-602.11"/>
</g>
<!-- 15 -->
<g id="node16" class="node">
<title>15</title>
<polygon fill="#ffffff" stroke="black" points="594.76,-429 581.26,-447 554.26,-447 540.76,-429 554.26,-411 581.26,-411 594.76,-429"/>
<text text-anchor="middle" x="567.76" y="-424.8" font-family="Times,serif" font-size="14.00">SC2</text>
</g>
<!-- 9&#45;&gt;15 -->
<g id="edge19" class="edge">
<title>9&#45;&gt;15</title>
<path fill="none" stroke="black" d="M424.79,-457.46C454.3,-451.55 501.1,-442.16 532.83,-435.8"/>
<polygon fill="black" stroke="black" points="533.18,-439.3 542.29,-433.91 531.8,-432.44 533.18,-439.3"/>
</g>
<!-- 10&#45;&gt;12 -->
<g id="edge24" class="edge">
<title>10&#45;&gt;12</title>
<path fill="none" stroke="#9c27b0" stroke-width="3" stroke-dasharray="1,5" d="M792.37,-476.17C792.37,-487 792.37,-500.71 792.37,-511.59"/>
<text text-anchor="middle" x="780.97" y="-489.8" font-family="Times,serif" font-size="14.00">≥</text>
</g>
<!-- 10&#45;&gt;14 -->
<g id="edge25" class="edge">
<title>10&#45;&gt;14</title>
<path fill="none" stroke="#9c27b0" stroke-width="3" stroke-dasharray="1,5" d="M766.84,-464.29C751.75,-469.47 733.85,-478.49 724.73,-493.6 720.87,-499.99 722.43,-503.3 724.73,-510.4 734.91,-541.87 760.06,-571.66 776.66,-588.86"/>
<text text-anchor="middle" x="717.5" y="-497.8" font-family="Times,serif" font-size="14.00">≥</text>
</g>
<!-- 16 -->
<g id="node17" class="node">
<title>16</title>
<ellipse fill="#ffffff" stroke="black" cx="915.1" cy="-507" rx="35.87" ry="18"/>
<text text-anchor="middle" x="915.1" y="-502.8" font-family="Times,serif" font-size="14.00">Type: A</text>
</g>
<!-- 10&#45;&gt;16 -->
<g id="edge21" class="edge">
<title>10&#45;&gt;16</title>
<path fill="none" stroke="black" d="M816.07,-467.22C832.9,-474.05 856.24,-483.52 875.91,-491.5"/>
<polygon fill="black" stroke="black" points="874.42,-494.67 885,-495.19 877.05,-488.19 874.42,-494.67"/>
</g>
<!-- 17 -->
<g id="node18" class="node">
<title>17</title>
<ellipse fill="#ffffff" stroke="black" cx="915.1" cy="-453" rx="35.35" ry="18"/>
<text text-anchor="middle" x="915.1" y="-448.8" font-family="Times,serif" font-size="14.00">Type: B</text>
</g>
<!-- 10&#45;&gt;17 -->
<g id="edge22" class="edge">
<title>10&#45;&gt;17</title>
<path fill="none" stroke="black" d="M816.43,-449.66C823.92,-447.35 832.34,-445.15 840.23,-444 850.26,-442.53 861.09,-442.81 871.27,-443.9"/>
<polygon fill="black" stroke="black" points="870.54,-447.34 880.92,-445.23 871.49,-440.4 870.54,-447.34"/>
</g>
<!-- 18 -->
<g id="node19" class="node">
<title>18</title>
<ellipse fill="#ffffff" stroke="black" cx="915.1" cy="-580" rx="35.35" ry="18"/>
<text text-anchor="middle" x="915.1" y="-575.8" font-family="Times,serif" font-size="14.00">Type: C</text>
</g>
<!-- 10&#45;&gt;18 -->
<g id="edge23" class="edge">
<title>10&#45;&gt;18</title>
<path fill="none" stroke="black" d="M808.17,-472.96C828.56,-493.56 865.53,-530.92 889.95,-555.6"/>
<polygon fill="black" stroke="black" points="887.43,-558.03 896.96,-562.68 892.41,-553.11 887.43,-558.03"/>
</g>
<!-- 19 -->
<g id="node20" class="node">
<title>19</title>
<polygon fill="#81d4fa" stroke="black" points="944.18,-337 929.64,-355 900.56,-355 886.02,-337 900.56,-319 929.64,-319 944.18,-337"/>
<text text-anchor="middle" x="915.1" y="-332.8" font-family="Times,serif" font-size="14.00">Conn</text>
</g>
<!-- 11&#45;&gt;19 -->
<g id="edge26" class="edge">
<title>11&#45;&gt;19</title>
<path fill="none" stroke="black" stroke-dasharray="5,2" d="M817.8,-348.17C834.69,-346.21 857.48,-343.57 876.65,-341.34"/>
<polygon fill="black" stroke="black" points="877,-344.83 886.53,-340.2 876.19,-337.87 877,-344.83"/>
<text text-anchor="middle" x="850.73" y="-349.45" font-family="Times,serif" font-size="14.00">1..*</text>
</g>
<!-- 12&#45;&gt;14 -->
<g id="edge30" class="edge">
<title>12&#45;&gt;14</title>
<path fill="none" stroke="#9c27b0" stroke-width="3" stroke-dasharray="1,5" d="M792.37,-548.29C792.37,-559.68 792.37,-574.27 792.37,-585.66"/>
<text text-anchor="middle" x="780.97" y="-562.8" font-family="Times,serif" font-size="14.00">≥</text>
</g>
<!-- 12&#45;&gt;16 -->
<g id="edge27" class="edge">
<title>12&#45;&gt;16</title>
<path fill="none" stroke="black" d="M818.68,-525.18C833.54,-522.35 852.74,-518.69 870.01,-515.4"/>
<polygon fill="black" stroke="black" points="870.37,-518.89 879.54,-513.58 869.06,-512.02 870.37,-518.89"/>
</g>
<!-- 12&#45;&gt;17 -->
<g id="edge28" class="edge">
<title>12&#45;&gt;17</title>
<path fill="none" stroke="black" d="M812.76,-517.63C831.61,-505.61 860.54,-487.16 882.67,-473.05"/>
<polygon fill="black" stroke="black" points="884.47,-476.05 891.02,-467.72 880.71,-470.14 884.47,-476.05"/>
</g>
<!-- 12&#45;&gt;18 -->
<g id="edge29" class="edge">
<title>12&#45;&gt;18</title>
<path fill="none" stroke="black" d="M808.64,-544.7C817.26,-552.19 828.62,-560.8 840.23,-566 849.14,-569.99 859.14,-572.84 868.84,-574.88"/>
<polygon fill="black" stroke="black" points="868.05,-578.3 878.51,-576.65 869.31,-571.41 868.05,-578.3"/>
</g>
<!-- 13&#45;&gt;19 -->
<g id="edge31" class="edge">
<title>13&#45;&gt;19</title>
<path fill="none" stroke="black" stroke-dasharray="5,2" d="M731.24,-446.92C739.32,-436.4 750.47,-423.45 762.5,-414.2 801.21,-384.43 817.87,-388.46 861.23,-366 868.84,-362.06 876.98,-357.68 884.54,-353.54"/>
<polygon fill="black" stroke="black" points="886,-356.73 893.06,-348.84 882.62,-350.6 886,-356.73"/>
<text text-anchor="middle" x="792.37" y="-418.4" font-family="Times,serif" font-size="14.00">1..*</text>
</g>
<!-- 14&#45;&gt;16 -->
<g id="edge32" class="edge">
<title>14&#45;&gt;16</title>
<path fill="none" stroke="black" d="M810.41,-590.31C830.15,-574.45 862.95,-548.09 886.38,-529.27"/>
<polygon fill="black" stroke="black" points="888.37,-532.16 893.98,-523.17 883.99,-526.7 888.37,-532.16"/>
</g>
<!-- 14&#45;&gt;17 -->
<g id="edge33" class="edge">
<title>14&#45;&gt;17</title>
<path fill="none" stroke="black" d="M805.01,-587.6C818.62,-568.38 841.76,-535.51 861.23,-507 869.37,-495.09 869.4,-490.55 879.23,-480 880.93,-478.18 882.76,-476.39 884.65,-474.64"/>
<polygon fill="black" stroke="black" points="886.71,-477.49 892.08,-468.36 882.19,-472.14 886.71,-477.49"/>
</g>
<!-- 14&#45;&gt;18 -->
<g id="edge34" class="edge">
<title>14&#45;&gt;18</title>
<path fill="none" stroke="black" d="M816.01,-613.29C829.36,-617.46 846.48,-620.55 861.23,-616 870.59,-613.12 879.77,-607.95 887.79,-602.42"/>
<polygon fill="black" stroke="black" points="889.78,-605.29 895.71,-596.51 885.6,-599.68 889.78,-605.29"/>
</g>
<!-- 15&#45;&gt;19 -->
<g id="edge35" class="edge">
<title>15&#45;&gt;19</title>
<path fill="none" stroke="black" stroke-dasharray="5,2" d="M579.61,-410.7C587.48,-398.8 599.13,-383.73 612.76,-374 669.88,-333.25 693.12,-334.45 762.5,-324 802.22,-318.01 848.25,-323.73 879.07,-329.35"/>
<polygon fill="black" stroke="black" points="878.13,-332.74 888.61,-331.19 879.45,-325.86 878.13,-332.74"/>
<text text-anchor="middle" x="717.5" y="-339.68" font-family="Times,serif" font-size="14.00">1..*</text>
</g>
<!-- 20 -->
<g id="node21" class="node">
<title>20</title>
<polygon fill="#ffffff" stroke="black" points="1061.97,-358 1048.47,-376 1021.47,-376 1007.97,-358 1021.47,-340 1048.47,-340 1061.97,-358"/>
<text text-anchor="middle" x="1034.97" y="-353.8" font-family="Times,serif" font-size="14.00">CC0</text>
</g>
<!-- 19&#45;&gt;20 -->
<g id="edge36" class="edge">
<title>19&#45;&gt;20</title>
<path fill="none" stroke="black" stroke-dasharray="5,2" d="M941.1,-341.45C958.03,-344.47 980.63,-348.5 999.3,-351.82"/>
<polygon fill="black" stroke="black" points="998.66,-355.26 1009.12,-353.57 999.89,-348.37 998.66,-355.26"/>
<text text-anchor="middle" x="979.47" y="-354.2" font-family="Times,serif" font-size="14.00">1..*</text>
</g>
<!-- 21 -->
<g id="node22" class="node">
<title>21</title>
<polygon fill="#ffffff" stroke="black" points="1061.97,-155 1048.47,-173 1021.47,-173 1007.97,-155 1021.47,-137 1048.47,-137 1061.97,-155"/>
<text text-anchor="middle" x="1034.97" y="-150.8" font-family="Times,serif" font-size="14.00">CC1</text>
</g>
<!-- 19&#45;&gt;21 -->
<g id="edge37" class="edge">
<title>19&#45;&gt;21</title>
<path fill="none" stroke="black" stroke-dasharray="5,2" d="M932.95,-322.35C939.11,-316.44 945.83,-309.29 950.97,-302 984.96,-253.72 974.38,-230.56 1007.97,-182 1008.91,-180.63 1009.93,-179.26 1011,-177.91"/>
<polygon fill="black" stroke="black" points="1013.52,-180.35 1017.47,-170.52 1008.25,-175.74 1013.52,-180.35"/>
<text text-anchor="middle" x="979.47" y="-272.75" font-family="Times,serif" font-size="14.00">1..*</text>
</g>
<!-- 22 -->
<g id="node23" class="node">
<title>22</title>
<polygon fill="#ffffff" stroke="black" points="1061.97,-290 1048.47,-308 1021.47,-308 1007.97,-290 1021.47,-272 1048.47,-272 1061.97,-290"/>
<text text-anchor="middle" x="1034.97" y="-285.8" font-family="Times,serif" font-size="14.00">CC2</text>
</g>
<!-- 19&#45;&gt;22 -->
<g id="edge38" class="edge">
<title>19&#45;&gt;22</title>
<path fill="none" stroke="black" stroke-dasharray="5,2" d="M937.72,-328.38C956.08,-321.06 982.66,-310.46 1003.24,-302.25"/>
<polygon fill="black" stroke="black" points="1004.27,-305.61 1012.26,-298.66 1001.67,-299.11 1004.27,-305.61"/>
<text text-anchor="middle" x="979.47" y="-319.11" font-family="Times,serif" font-size="14.00">1..*</text>
</g>
<!-- 23&#45;&gt;20 -->
<g id="edge40" class="edge">
<title>23&#45;&gt;20</title>
<path fill="none" stroke="black" d="M941.83,-283.38C956.73,-288.96 975.37,-297.26 989.97,-308 998.76,-314.48 1007.06,-322.98 1014.02,-331.13"/>
<polygon fill="black" stroke="black" points="1011.3,-333.33 1020.32,-338.89 1016.73,-328.92 1011.3,-333.33"/>
</g>
<!-- 26 -->
<g id="node27" class="node">
<title>26</title>
<ellipse fill="#81d4fa" stroke="black" cx="1034.97" cy="-209" rx="27" ry="18"/>
<text text-anchor="middle" x="1034.97" y="-204.8" font-family="Times,serif" font-size="14.00">CT0</text>
</g>
<!-- 23&#45;&gt;26 -->
<g id="edge39" class="edge">
<title>23&#45;&gt;26</title>
<path fill="none" stroke="black" d="M935.27,-261.37C945.13,-254.6 957.47,-246.5 968.97,-240 979.22,-234.2 990.74,-228.46 1001.19,-223.54"/>
<polygon fill="black" stroke="black" points="1002.63,-226.73 1010.24,-219.36 999.69,-220.38 1002.63,-226.73"/>
</g>
<!-- 24&#45;&gt;21 -->
<g id="edge42" class="edge">
<title>24&#45;&gt;21</title>
<path fill="none" stroke="black" d="M822.5,-178.31C861.01,-177.08 930.9,-173.76 989.97,-165 993.42,-164.49 997,-163.85 1000.57,-163.15"/>
<polygon fill="black" stroke="black" points="1001.19,-166.6 1010.23,-161.07 999.71,-159.75 1001.19,-166.6"/>
</g>
<!-- 24&#45;&gt;23 -->
<g id="edge43" class="edge">
<title>24&#45;&gt;23</title>
<path fill="none" stroke="black" d="M811.44,-193.37C831.56,-209.37 864.28,-235.38 887.36,-253.74"/>
<polygon fill="black" stroke="black" points="885.1,-256.42 895.11,-259.9 889.46,-250.94 885.1,-256.42"/>
</g>
<!-- 27 -->
<g id="node28" class="node">
<title>27</title>
<ellipse fill="#81d4fa" stroke="black" cx="1034.97" cy="-90" rx="27" ry="18"/>
<text text-anchor="middle" x="1034.97" y="-85.8" font-family="Times,serif" font-size="14.00">CT1</text>
</g>
<!-- 24&#45;&gt;27 -->
<g id="edge41" class="edge">
<title>24&#45;&gt;27</title>
<path fill="none" stroke="black" d="M818.21,-169.81C861.54,-153.78 950.98,-120.7 1000,-102.56"/>
<polygon fill="black" stroke="black" points="1001.09,-105.89 1009.26,-99.14 998.67,-99.33 1001.09,-105.89"/>
</g>
<!-- 25&#45;&gt;22 -->
<g id="edge45" class="edge">
<title>25&#45;&gt;22</title>
<path fill="none" stroke="black" d="M672.78,-207.44C745.77,-208.93 934.47,-215.44 989.97,-243 999.42,-247.7 1007.89,-255.32 1014.81,-263.08"/>
<polygon fill="black" stroke="black" points="1011.92,-265.08 1020.98,-270.58 1017.33,-260.63 1011.92,-265.08"/>
</g>
<!-- 25&#45;&gt;24 -->
<g id="edge46" class="edge">
<title>25&#45;&gt;24</title>
<path fill="none" stroke="black" d="M671.42,-201.73C694.25,-197.41 726.86,-191.23 752.32,-186.4"/>
<polygon fill="black" stroke="black" points="752.79,-189.87 761.96,-184.57 751.49,-183 752.79,-189.87"/>
</g>
<!-- 28 -->
<g id="node29" class="node">
<title>28</title>
<ellipse fill="#81d4fa" stroke="black" cx="1034.97" cy="-18" rx="27" ry="18"/>
<text text-anchor="middle" x="1034.97" y="-13.8" font-family="Times,serif" font-size="14.00">CT2</text>
</g>
<!-- 25&#45;&gt;28 -->
<g id="edge44" class="edge">
<title>25&#45;&gt;28</title>
<path fill="none" stroke="black" d="M666.5,-195.74C674.13,-192 682.68,-187.81 690.5,-184 805.37,-128.06 942.16,-62.16 1002.6,-33.08"/>
<polygon fill="black" stroke="black" points="1003.78,-36.4 1011.28,-28.91 1000.75,-30.09 1003.78,-36.4"/>
</g>
<!-- 26&#45;&gt;27 -->
<g id="edge50" class="edge">
<title>26&#45;&gt;27</title>
<path fill="none" stroke="#9c27b0" stroke-width="3" stroke-dasharray="1,5" d="M1018.36,-194.55C1005.67,-182.22 989.38,-163.21 983.47,-142.4 981.42,-135.22 980,-132.21 983.47,-125.6 989.52,-114.05 1001.22,-105.5 1011.93,-99.69"/>
<text text-anchor="middle" x="979.47" y="-129.8" font-family="Times,serif" font-size="14.00">≥</text>
</g>
<!-- 26&#45;&gt;28 -->
<g id="edge51" class="edge">
<title>26&#45;&gt;28</title>
<path fill="none" stroke="#9c27b0" stroke-width="3" stroke-dasharray="1,5" d="M1014.2,-197.21C1002.83,-189.49 989.81,-178.28 983.47,-164.4 962.42,-118.33 1000.06,-60.97 1021.54,-33.75"/>
<text text-anchor="middle" x="979.47" y="-151.8" font-family="Times,serif" font-size="14.00">≥</text>
</g>
<!-- 29 -->
<g id="node30" class="node">
<title>29</title>
<ellipse fill="#ffffff" stroke="black" cx="1134.83" cy="-38" rx="35.87" ry="18"/>
<text text-anchor="middle" x="1134.83" y="-33.8" font-family="Times,serif" font-size="14.00">Type: A</text>
</g>
<!-- 26&#45;&gt;29 -->
<g id="edge47" class="edge">
<title>26&#45;&gt;29</title>
<path fill="none" stroke="black" d="M1052.16,-194.61C1055.77,-190.79 1059.3,-186.47 1061.97,-182 1089.84,-135.12 1067.76,-109.73 1098.97,-65 1100.25,-63.16 1101.69,-61.39 1103.24,-59.7"/>
<polygon fill="black" stroke="black" points="1105.59,-62.3 1110.55,-52.93 1100.83,-57.16 1105.59,-62.3"/>
</g>
<!-- 30 -->
<g id="node31" class="node">
<title>30</title>
<ellipse fill="#ffffff" stroke="black" cx="1134.83" cy="-92" rx="35.35" ry="18"/>
<text text-anchor="middle" x="1134.83" y="-87.8" font-family="Times,serif" font-size="14.00">Type: B</text>
</g>
<!-- 26&#45;&gt;30 -->
<g id="edge48" class="edge">
<title>26&#45;&gt;30</title>
<path fill="none" stroke="black" d="M1050.79,-194.1C1054.51,-190.22 1058.45,-186.01 1061.97,-182 1080.38,-161.01 1100.09,-136.14 1114.2,-117.86"/>
<polygon fill="black" stroke="black" points="1116.8,-120.23 1120.12,-110.17 1111.25,-115.97 1116.8,-120.23"/>
</g>
<!-- 31 -->
<g id="node32" class="node">
<title>31</title>
<ellipse fill="#ffffff" stroke="black" cx="1134.83" cy="-165" rx="35.35" ry="18"/>
<text text-anchor="middle" x="1134.83" y="-160.8" font-family="Times,serif" font-size="14.00">Type: C</text>
</g>
<!-- 26&#45;&gt;31 -->
<g id="edge49" class="edge">
<title>26&#45;&gt;31</title>
<path fill="none" stroke="black" d="M1061.72,-206.34C1068.16,-205.16 1074.94,-203.46 1080.97,-201 1089.64,-197.46 1098.34,-192.35 1106.11,-187.08"/>
<polygon fill="black" stroke="black" points="1108.06,-189.99 1114.14,-181.31 1103.98,-184.3 1108.06,-189.99"/>
</g>
<!-- 27&#45;&gt;28 -->
<g id="edge55" class="edge">
<title>27&#45;&gt;28</title>
<path fill="none" stroke="#9c27b0" stroke-width="3" stroke-dasharray="1,5" d="M1034.97,-71.59C1034.97,-60.71 1034.97,-47 1034.97,-36.17"/>
<text text-anchor="middle" x="1023.57" y="-49.8" font-family="Times,serif" font-size="14.00">≥</text>
</g>
<!-- 27&#45;&gt;29 -->
<g id="edge52" class="edge">
<title>27&#45;&gt;29</title>
<path fill="none" stroke="black" d="M1056.72,-78.97C1069.09,-72.4 1085.11,-63.89 1099.34,-56.33"/>
<polygon fill="black" stroke="black" points="1100.78,-59.53 1107.96,-51.74 1097.49,-53.35 1100.78,-59.53"/>
</g>
<!-- 27&#45;&gt;30 -->
<g id="edge53" class="edge">
<title>27&#45;&gt;30</title>
<path fill="none" stroke="black" d="M1062.45,-90.54C1070.32,-90.7 1079.18,-90.88 1087.92,-91.06"/>
<polygon fill="black" stroke="black" points="1087.65,-94.56 1097.72,-91.26 1087.79,-87.56 1087.65,-94.56"/>
</g>
<!-- 27&#45;&gt;31 -->
<g id="edge54" class="edge">
<title>27&#45;&gt;31</title>
<path fill="none" stroke="black" d="M1047.41,-106.43C1059.68,-123.97 1077.72,-149.46 1079.97,-151 1083,-153.07 1086.31,-154.84 1089.77,-156.34"/>
<polygon fill="black" stroke="black" points="1088.36,-159.56 1098.95,-159.61 1090.7,-152.96 1088.36,-159.56"/>
</g>
<!-- 28&#45;&gt;29 -->
<g id="edge56" class="edge">
<title>28&#45;&gt;29</title>
<path fill="none" stroke="black" d="M1061.17,-23.15C1069.88,-24.93 1079.91,-26.98 1089.69,-28.98"/>
<polygon fill="black" stroke="black" points="1088.97,-32.41 1099.47,-30.98 1090.38,-25.55 1088.97,-32.41"/>
</g>
<!-- 28&#45;&gt;30 -->
<g id="edge57" class="edge">
<title>28&#45;&gt;30</title>
<path fill="none" stroke="black" d="M1053.46,-31.23C1067.84,-42.1 1088.5,-57.73 1105.28,-70.41"/>
<polygon fill="black" stroke="black" points="1102.84,-72.95 1112.92,-76.19 1107.06,-67.37 1102.84,-72.95"/>
</g>
<!-- 28&#45;&gt;31 -->
<g id="edge58" class="edge">
<title>28&#45;&gt;31</title>
<path fill="none" stroke="black" d="M1045.77,-34.74C1057.79,-55.02 1079.04,-90.07 1098.97,-119 1103.55,-125.65 1108.7,-132.68 1113.61,-139.18"/>
<polygon fill="black" stroke="black" points="1110.76,-141.22 1119.62,-147.03 1116.32,-136.96 1110.76,-141.22"/>
</g>
</g>
</svg>
